<svg id="Layer_1" data-name="Layer 1" xmlns="http://www.w3.org/2000/svg" viewBox="0 0 592.9 559.4"><defs><style>.cls-1,.cls-5{fill:#338cb7;}.cls-1,.cls-2{isolation:isolate;}.cls-1{opacity:0.1;}.cls-2{fill:#fff;opacity:0.1;}.cls-3{fill:#b4bcbe;}.cls-4{fill:#b2c9d3;}</style></defs><g id="Frame"><g id="Circle"><path id="Left" class="cls-1" d="M111.9,146.2c-44.1,36.8-74.5,83-91.6,137.7A276.07,276.07,0,0,0,8.7,343c-.2,1.1-.4,2.3-.7,3.4v46c1.2,8.7,2.2,17.4,3.6,26.1a285.32,285.32,0,0,0,39.8,105A290.71,290.71,0,0,0,117,597.3c1,.8,2,1.7,3,2.6h3V137.4C119.3,140.2,115.6,143.2,111.9,146.2Z" transform="translate(-5.7 -40.6)"/><path id="Right" class="cls-1" d="M590.4,339.6A279.58,279.58,0,0,0,565.9,249Q536.05,184.5,483,142.3v455c5.6-5,11.2-9.9,16.7-15A288.19,288.19,0,0,0,566,490.2a293.15,293.15,0,0,0,24.1-85.5c.8-6.4,1.3-12.9,1.9-19.3V354.5C591.5,349.5,590.9,344.5,590.4,339.6Z" transform="translate(-5.7 -40.6)"/></g><rect id="Mobile_LCD" data-name="Mobile LCD" class="cls-2" x="121.4" y="43.3" width="350.9" height="516.1"/><path id="Mobile" class="cls-3" d="M477.2,599.9c-.1-2.5-.2-5-.2-7.5V110c0-5.1-.4-10-2.8-14.5-4-7.7-10.7-11-19.1-11.5-1-.1-2,0-3,0q-149.85-.15-299.6-.1c-8.5,0-15.9,2.3-20.4,10-1.8,3-2.6,6.8-3.5,10.2a20.81,20.81,0,0,0-.1,5V592.5c0,2.5-.2,5-.3,7.5h-6c-3-1.8-4.1-4.6-4.2-8s-.1-7-.1-10.5v-303c.1-2-.4-3.5-2.6-4.3-2.8-1-3.5-3.3-3.5-6v-30c0-2.8.8-5,3.6-5.9,2.2-.7,2.5-2.3,2.4-4.3a41.7,41.7,0,0,1,0-5c.1-2.2-.5-3.8-2.8-4.6s-3.2-2.7-3.2-5.1c0-10.3-.1-20.7.1-31,0-1.7,1.1-4.4,2.4-4.9,3.4-1.5,3.5-3.9,3.4-6.9V104c0-35.6,30.7-63.5,62.8-63.4q122.7.3,245.3,0c26.5,0,53.3,19.2,60.6,47.7.5,1.9,1.1,3.8,1.7,5.7V591.9l-9,8ZM308.7,65.6c6.5,0,13,.1,19.4-.1,1,0,2-1.1,3-1.7-1-.6-2-1.6-3.1-1.7-12.6-.1-25.3-.1-37.9,0-1,0-2,1.1-2.9,1.8,1,.6,2,1.6,3.1,1.6C296.4,65.7,302.5,65.6,308.7,65.6ZM241.5,64a5.19,5.19,0,0,0-5.2-5,5,5,0,0,0-5.1,5,5.16,5.16,0,1,0,10.3,0Zm10.3,2.7c3.2-.3,4.6-1.6,4.1-3.6a5.1,5.1,0,0,0-3.2-2.9,2.67,2.67,0,0,0-3.3,1.8,2.88,2.88,0,0,0-.1,1.3C249.6,64.7,251.1,65.9,251.8,66.7Z" transform="translate(-5.7 -40.6)"/></g><g id="Games"><path class="cls-4" d="M61.9,145.3c1.3.8,2.7,1.6,4,2.4l9.9,5.7a2.09,2.09,0,0,1,.6.4c.4.4.2.9-.4,1.3-1.1.7-2.2,1.3-3.3,1.9-3.5,2-7,4-10.5,6.1a1.35,1.35,0,0,1-1.7,0c-4.4-2.6-8.9-5.1-13.3-7.7a1.79,1.79,0,0,1-.7-.5c-.6-.4-.6-1,.1-1.4s1.6-1,2.4-1.4c3.8-2.2,7.5-4.4,11.3-6.6a1.76,1.76,0,0,0,.5-.4Z" transform="translate(-5.7 -40.6)"/><path class="cls-4" d="M5.7,192.7a3.4,3.4,0,0,0,.1-1V179.9a.71.71,0,0,1,.8-.7.6.6,0,0,1,.4.1,18.58,18.58,0,0,1,1.9,1.1c4,2.3,8.1,4.7,12.1,7a1.55,1.55,0,0,1,.9,1.5v16c-.1.8-.6,1.1-1.3.7-1.1-.6-2.2-1.3-3.3-1.9-3.3-1.9-6.7-3.8-10-5.8-.5-.3-1-.7-1.5-1Z" transform="translate(-5.7 -40.6)"/><path class="cls-4" d="M23.3,166.8a4.18,4.18,0,0,0,1,.4c3.8,2.2,7.5,4.3,11.3,6.5l2.3,1.3q1.65.9,0,1.8c-3,1.8-6.1,3.5-9.1,5.3-1.5.9-2.9,1.7-4.4,2.6a1.5,1.5,0,0,1-1.8,0c-3.2-1.9-6.4-3.7-9.5-5.5l-3.9-2.3c-.1-.1-.3-.1-.4-.2q-1.05-.75,0-1.5c1-.6,2-1.2,2.9-1.7l10.6-6.2A9.25,9.25,0,0,0,23.3,166.8Z" transform="translate(-5.7 -40.6)"/><path class="cls-4" d="M57.9,186.9l-.9.9c-1,.6-2.1,1.2-3.1,1.8-3.5,2.1-7.1,4.1-10.6,6.2a1.53,1.53,0,0,1-1.6,0c-4.6-2.7-9.2-5.3-13.7-8l-.1-.1c-.9-.6-.9-1.1.1-1.6l1.9-1.1c3.9-2.3,7.8-4.5,11.7-6.8a1.5,1.5,0,0,1,1.8,0c4.6,2.7,9.2,5.3,13.7,8C57.3,186.4,57.6,186.6,57.9,186.9Z" transform="translate(-5.7 -40.6)"/><path class="cls-4" d="M78.9,166.5v7.7a1.62,1.62,0,0,1-1,1.6c-4.4,2.5-8.8,5.1-13.2,7.6a3.55,3.55,0,0,1-.9.4c-.6.2-1,0-1-.7v-9.7c0-2-.1-4.1-.1-6.1a1.88,1.88,0,0,1,1.1-1.9c4.5-2.6,9-5.1,13.5-7.7a.76.76,0,0,1,.5-.2.71.71,0,0,1,1,.3c.1.1.1.2.1.4v8.3Z" transform="translate(-5.7 -40.6)"/><path class="cls-4" d="M78.9,188.4v7.7a1.42,1.42,0,0,1-.9,1.5l-13.5,7.8c-.1,0-.1.1-.2.1-.8.7-1.6.1-1.5-.9.1-1.4,0-2.8,0-4.2V189a1.62,1.62,0,0,1,1-1.7c4.6-2.6,9.1-5.2,13.7-7.9.9-.5,1.4-.2,1.4.9v8.1Z" transform="translate(-5.7 -40.6)"/><path class="cls-4" d="M24.8,199.3V191c.1-.7.5-1,1.2-.7a13.39,13.39,0,0,0,1.2.6L39.6,198c.2.1.4.3.6.4a1.15,1.15,0,0,1,.7,1.3v16c0,1-.5,1.3-1.5.8-1.3-.7-2.6-1.5-3.9-2.2-3.3-1.9-6.6-3.8-10-5.7a1.42,1.42,0,0,1-.8-1.4c.1-2.6.1-5.2.1-7.9Z" transform="translate(-5.7 -40.6)"/><path class="cls-4" d="M43.9,166.5v-7.9c0-1.2.4-1.5,1.5-.9.8.4,1.6.9,2.4,1.4,3.7,2.1,7.4,4.3,11.2,6.4a1.62,1.62,0,0,1,1,1.7V183c-.1,1-.6,1.3-1.5.8-1.6-.9-3.1-1.8-4.7-2.7-2.9-1.7-5.9-3.4-8.8-5.1a1.88,1.88,0,0,1-1.1-1.9c.1-2.5.1-5.1,0-7.6Z" transform="translate(-5.7 -40.6)"/><path class="cls-4" d="M43.9,207.7V200a1.54,1.54,0,0,1,.9-1.6l13.5-7.8c1.1-.6,1.6-.3,1.6.9v15.7a1.34,1.34,0,0,1-.8,1.4c-4.5,2.6-9,5.2-13.4,7.8-1.2.7-1.9.7-1.9-1.1.2-2.6.1-5.1.1-7.6Z" transform="translate(-5.7 -40.6)"/><path class="cls-5" d="M304.3,224.4h65c25,0,52.6,16,62.5,44.1,11.3,32,23,63.9,34.2,95.9,8.2,23.7,7.2,47.1-4.5,69.7a77.33,77.33,0,0,1-6.6,11.1c-14.5,19.8-43.2,19.4-57.6-.8-10.8-15.2-21.8-30.2-32.6-45.5-3.7-5.2-8.2-7.5-14.7-7.5q-45.75.3-91.5,0c-6.9,0-11.5,2.6-15.4,8.2q-16.5,23.85-33.7,47.1c-7.8,10.5-25.9,16.9-40.1,10.6-11.2-5-17.7-13.7-22.8-24-11.3-22.8-12.3-46.2-3.7-70.2,7.6-21.1,15.2-42.3,22.8-63.4,3.8-10.6,7.5-21.4,11.5-31.9,7.8-20.5,22.5-33.7,43.3-40.4a65.4,65.4,0,0,1,20.1-3.1C261.6,224.5,282.9,224.4,304.3,224.4Zm0,17.3h-64a54.31,54.31,0,0,0-9.9.6c-19.5,3.6-32,15.4-38.6,33.7-11.5,32-23.1,63.9-34,96-7.4,21.6-4.2,42.2,8.1,61.6a19.31,19.31,0,0,0,26.6,5.8,20.58,20.58,0,0,0,5.4-5.2c10.3-15.3,21.5-30,32.2-45.1,6.2-8.7,14.3-14.4,25-14.5,32.7-.3,65.3-.3,98,0A28.91,28.91,0,0,1,377,387.1l14,19.5c6.8,9.5,13.7,18.8,20.4,28.4,7,10,23,10.7,31-1a69,69,0,0,0,12-36.5c.6-11.4-2.1-22-6-32.6q-16.2-44.25-31.7-88.9c-7.6-21.3-27.3-34.9-49-34.3C346.6,242.1,325.4,241.7,304.3,241.7Z" transform="translate(-5.7 -40.6)"/><path class="cls-5" d="M266.7,310.3c-.1,10.7,1.2,9.4-9.7,9.5-9.6.1-8.3-1.2-8.4,8.6,0,2.2-.1,4.3,0,6.5s-.9,3.5-3.2,3.6H232.9c-2.5,0-3.6-1.5-3.6-3.8,0-3.7-.1-7.3,0-11,.1-2.7-.9-4-3.8-3.9-3.1.1-6.3,0-9.5,0-2.6.1-4.1-.8-4-3.7q.15-6,0-12c-.1-2.6,1.3-3.6,3.7-3.6,3.3,0,6.6-.1,10,0,2.5,0,3.6-1.1,3.6-3.6-.1-3.3-.1-6.6,0-10,.1-3.7.8-4.3,4.4-4.5s7.3,0,11,0c2.7,0,3.9,1.2,3.8,4-.1,3.5.1,7,0,10.5-.1,2.5,1,3.7,3.5,3.6,3.3-.1,6.6-.1,10,0,4.1.1,4.5.5,4.6,4.7A43.83,43.83,0,0,1,266.7,310.3Z" transform="translate(-5.7 -40.6)"/><path class="cls-5" d="M362.8,316.6a11.18,11.18,0,0,1,10.9,10.8,11.43,11.43,0,0,1-11.1,11.2c-5.7,0-10.6-5.6-10.4-11.7A10.75,10.75,0,0,1,362.8,316.6Z" transform="translate(-5.7 -40.6)"/><path class="cls-5" d="M352.1,288.6c.1-5.9,5-11,10.7-11s11,5.6,10.8,11.5a11.25,11.25,0,0,1-11.1,10.6A10.87,10.87,0,0,1,352.1,288.6Z" transform="translate(-5.7 -40.6)"/><path class="cls-5" d="M340.1,296.4a10.5,10.5,0,0,1,10.5,10.5v.3a10.71,10.71,0,0,1-10.7,10.7h-.1a10.52,10.52,0,0,1-10.7-10.4v-.9C329.4,300.4,333.8,296.3,340.1,296.4Z" transform="translate(-5.7 -40.6)"/><path class="cls-5" d="M395.8,306.9c0,6.6-3.9,10.9-10.1,11a11.05,11.05,0,0,1-11.1-11h0c.1-5.4,5.1-10.3,10.7-10.4C391.6,296.2,395.7,300.4,395.8,306.9Z" transform="translate(-5.7 -40.6)"/><path class="cls-4" d="M498,468.1v-3.6a2.35,2.35,0,0,0,.2-.8,11.08,11.08,0,0,1,10.6-8.4c4.6.1,9.2,0,13.9,0h.7c.7,0,.9-.3,1-1V440.1a13.4,13.4,0,0,1,.1-2,10.9,10.9,0,0,1,5.8-8.4,20.63,20.63,0,0,1,3.5-1.2h2.8c.2,0,.3.1.5.1a10.64,10.64,0,0,1,8.5,7.8,11.42,11.42,0,0,1,.5,3.7v14.4c.1.5.3.8.8.8h15.9a10.86,10.86,0,0,1,8.5,6.1,31.9,31.9,0,0,1,1.1,3.3v3c0,.1-.1.3-.1.4a10.91,10.91,0,0,1-10.9,9c-4.6-.1-9.1,0-13.7,0h-.9a.88.88,0,0,0-.8.9v10.4c0,1.8,0,3.6-.1,5.4a10.64,10.64,0,0,1-6.1,9.1,30.05,30.05,0,0,1-3.2,1.1h-3c-.2,0-.3-.1-.5-.1a10.27,10.27,0,0,1-4.9-2.4,11.21,11.21,0,0,1-4-8.7V478.1c0-.7-.3-1-1-1H508.6a10.22,10.22,0,0,1-9.5-5.9A12.51,12.51,0,0,1,498,468.1Zm30-1.8a7.3,7.3,0,1,0,7.4-7.4A7.32,7.32,0,0,0,528,466.3Zm7.2-29.6-4.5,9.2h9.1Zm20.3,34.2,9-4.6-9-4.6Zm-20.4,24.8h.2l4.4-8.8a66,66,0,0,0-8.9,0Zm-29-29.4,8.9,4.6v-9.1Z" transform="translate(-5.7 -40.6)"/><path class="cls-4" d="M547.4,292.8c-1-.3-2.1-.4-3.1-.8-6.9-2.5-11.1-7.3-12.2-14.6a17.82,17.82,0,1,1,23.3,14.5c-1.1.4-2.3.6-3.4.9Zm-5.2-21.3h-2.5c-1,0-1.4.3-1.6.9s0,1.1.8,1.6c1.3.9,2.5,1.9,3.8,2.8s1.4,1.3.9,2.9l-1.5,4.8a1.27,1.27,0,0,0,1.4,1.7,4.18,4.18,0,0,0,1-.4c1.4-1,2.7-2,4.1-2.9a1.63,1.63,0,0,1,2.4,0c1.4,1,2.7,2,4.1,3a1.37,1.37,0,0,0,1.8.1c.5-.4.6-.9.3-1.8l-1.5-4.8a1.71,1.71,0,0,1,.8-2.4c1.3-.9,2.6-1.9,3.9-2.8.6-.4,1.1-.9.9-1.7-.2-.6-.7-1-1.7-1H555c-1.6,0-2-.3-2.5-1.8s-1-3-1.5-4.6c-.3-.9-.9-1.3-1.7-1a1.4,1.4,0,0,0-.9,1.2c-.5,1.5-1,3-1.5,4.6-.5,1.4-.9,1.7-2.4,1.7A17.7,17.7,0,0,0,542.2,271.5Z" transform="translate(-5.7 -40.6)"/><path class="cls-4" d="M598.5,184.2a38.7,38.7,0,0,0-2.1,3.4c-4.1,7-8.3,13.9-12.4,20.9-6.1,10.3-12.2,20.5-18.2,30.8-1.2,2-2.4,4-3.6,6.1a2,2,0,0,1-1.8,1.1h-5.8c-1,0-1.1-.1-.6-1.1,3-5,5.9-10,8.9-15,5.3-9,10.6-17.9,15.9-26.9,3.7-6.3,7.4-12.5,11.1-18.8a1.68,1.68,0,0,1,1.8-1c2.3.1,4.6.1,6.9.1v.4Z" transform="translate(-5.7 -40.6)"/><path class="cls-4" d="M500.3,183.6c2.4,0,4.7,0,7.1-.1a1.36,1.36,0,0,1,1.1.7c1.8,2.8,3.5,5.7,5.3,8.5,4.6,7.3,9.1,14.7,13.7,22,3.9,6.2,7.7,12.5,11.7,18.7a1.52,1.52,0,0,1,0,2c-1.1,1.8-2.2,3.6-3.2,5.4-.5.8-.6.8-1.1,0L528.3,230c-4.8-8-9.7-15.9-14.5-23.9-4.3-7.1-8.6-14.1-12.8-21.2-.2-.2-.3-.5-.5-.7v-.6Z" transform="translate(-5.7 -40.6)"/><path class="cls-4" d="M543,246.4h-3.1c-1.2,0-1.3-.1-.6-1.2,1.4-2.4,2.9-4.8,4.3-7.2,3.1-5.2,6.2-10.4,9.3-15.5L567,199.1c2.9-4.8,5.7-9.5,8.6-14.3a2.1,2.1,0,0,1,2-1.2c1.8.1,3.6,0,5.4,0a3.55,3.55,0,0,1,1,.2c-.1.3-.2.7-.3,1-2.6,4.5-5.2,8.9-7.9,13.3l-17.7,30c-3.4,5.8-6.9,11.6-10.3,17.4a1.68,1.68,0,0,1-1.8,1A15.06,15.06,0,0,0,543,246.4Z" transform="translate(-5.7 -40.6)"/><path class="cls-4" d="M518.6,183.6h3a1.34,1.34,0,0,1,1.4.8c3.2,5.3,6.5,10.6,9.7,15.9,4.4,7.1,8.8,14.3,13.2,21.4a1.81,1.81,0,0,1,0,2.3c-1.1,1.5-1.9,3.2-2.9,4.8-.4.7-.5.7-1,0-5.1-8.1-10.1-16.2-15.2-24.4-4-6.5-8-12.9-12-19.4-.2-.4-.3-.7-.5-1.1.4-.1.8-.1,1.2-.2A16.57,16.57,0,0,1,518.6,183.6Z" transform="translate(-5.7 -40.6)"/><path class="cls-4" d="M96.1,446.9V482H61v-9.6q0-.6.6-.3c.2.1.3.2.5.3a8.62,8.62,0,0,0,6.1.8,8.89,8.89,0,0,0,.5-17.2,8.28,8.28,0,0,0-7,.8c-.7.4-.8.3-.8-.5v-7.8c0-1.7-.1-1.6,1.6-1.6H73.7a2,2,0,0,0,2.1-2.4,7.92,7.92,0,0,0-1.6-3.9,5,5,0,0,1,6.9-7,5.08,5.08,0,0,1,2.2,5.2,7.74,7.74,0,0,1-1.2,2.6,5.61,5.61,0,0,0-1,3.8,1.75,1.75,0,0,0,1.7,1.7H96.1Z" transform="translate(-5.7 -40.6)"/><path class="cls-4" d="M57.2,482H22.1V446.9h9.6q.6,0,.3.6c-.1.2-.2.3-.3.5a8.62,8.62,0,0,0-.8,6.1A8.93,8.93,0,0,0,41,461a8.92,8.92,0,0,0,6.3-13.2c-.4-.7-.3-.8.5-.8h7.8c1.7,0,1.6-.1,1.6,1.6v11.2a2,2,0,0,0,2.4,2.1,7.92,7.92,0,0,0,3.9-1.6,5,5,0,0,1,7,6.9,5.08,5.08,0,0,1-5.2,2.2,7.74,7.74,0,0,1-2.6-1.2,5.61,5.61,0,0,0-3.8-1,1.75,1.75,0,0,0-1.7,1.7V482Z" transform="translate(-5.7 -40.6)"/><path class="cls-4" d="M61,408H96.1v35H86.5q-.6,0-.3-.6c.1-.2.2-.3.3-.5a8.62,8.62,0,0,0,.8-6.1,8.91,8.91,0,1,0-16.4,6.5c.4.7.3.8-.5.8H62.6c-1.7,0-1.6.1-1.6-1.6V430.4c0-1.6-.9-2.3-2.5-2.2a8,8,0,0,0-3.8,1.6,5.07,5.07,0,0,1-6.9-1.3,5,5,0,0,1-.1-5.6,5.08,5.08,0,0,1,5.2-2.2,7.74,7.74,0,0,1,2.6,1.2,6.63,6.63,0,0,0,3.6,1.1,1.81,1.81,0,0,0,1.9-1.8V408Z" transform="translate(-5.7 -40.6)"/><path class="cls-4" d="M22.1,443V408H57.2v9.6q0,.6-.6.3c-.2-.1-.3-.2-.5-.3a8.62,8.62,0,0,0-6.1-.8,8.93,8.93,0,0,0-6.9,10.1,8.58,8.58,0,0,0,6.3,7.1,8.78,8.78,0,0,0,6.9-.8c.7-.4.8-.3.8.5v7.8c0,1.7.1,1.6-1.6,1.6H44.4c-1.6,0-2.3.9-2.2,2.5a8.93,8.93,0,0,0,1.5,3.8,5,5,0,1,1-9.1,1.8,8.23,8.23,0,0,1,1.2-2.5,7,7,0,0,0,1.1-3.7,1.79,1.79,0,0,0-1.8-1.8h-1Z" transform="translate(-5.7 -40.6)"/></g></svg>