<svg id="Layer_1" data-name="Layer 1" xmlns="http://www.w3.org/2000/svg" viewBox="0 0 594.51 559.4"><defs><style>.cls-1,.cls-5{fill:#338cb7;}.cls-1,.cls-2{isolation:isolate;}.cls-1{opacity:0.1;}.cls-2{fill:#fff;opacity:0.1;}.cls-3{fill:#b4bcbe;}.cls-4{fill:#b2c9d3;}</style></defs><g id="Frame"><g id="Circle"><path id="Left" class="cls-1" d="M111.9,146.2c-44.1,36.8-74.5,83-91.6,137.7A276.07,276.07,0,0,0,8.7,343c-.2,1.1-.4,2.3-.7,3.4v46c1.2,8.7,2.2,17.4,3.6,26.1a285.32,285.32,0,0,0,39.8,105A290.71,290.71,0,0,0,117,597.3c1,.8,2,1.7,3,2.6h3V137.4C119.3,140.2,115.6,143.2,111.9,146.2Z" transform="translate(-1.3 -40.6)"/><path id="Right" class="cls-1" d="M590.4,339.6A279.58,279.58,0,0,0,565.9,249Q536.05,184.5,483,142.3v455c5.6-5,11.2-9.9,16.7-15A288.19,288.19,0,0,0,566,490.2a293.15,293.15,0,0,0,24.1-85.5c.8-6.4,1.3-12.9,1.9-19.3V354.5C591.5,349.5,590.9,344.5,590.4,339.6Z" transform="translate(-1.3 -40.6)"/></g><rect id="Mobile_LCD" data-name="Mobile LCD" class="cls-2" x="125.8" y="43.3" width="350.9" height="516.1"/><path id="Mobile" class="cls-3" d="M477.2,599.9c-.1-2.5-.2-5-.2-7.5V110c0-5.1-.4-10-2.8-14.5-4-7.7-10.7-11-19.1-11.5-1-.1-2,0-3,0q-149.85-.15-299.6-.1c-8.5,0-15.9,2.3-20.4,10-1.8,3-2.6,6.8-3.5,10.2a20.81,20.81,0,0,0-.1,5V592.5c0,2.5-.2,5-.3,7.5h-6c-3-1.8-4.1-4.6-4.2-8s-.1-7-.1-10.5v-303c.1-2-.4-3.5-2.6-4.3-2.8-1-3.5-3.3-3.5-6v-30c0-2.8.8-5,3.6-5.9,2.2-.7,2.5-2.3,2.4-4.3a41.7,41.7,0,0,1,0-5c.1-2.2-.5-3.8-2.8-4.6s-3.2-2.7-3.2-5.1c0-10.3-.1-20.7.1-31,0-1.7,1.1-4.4,2.4-4.9,3.4-1.5,3.5-3.9,3.4-6.9V104c0-35.6,30.7-63.5,62.8-63.4q122.7.3,245.3,0c26.5,0,53.3,19.2,60.6,47.7.5,1.9,1.1,3.8,1.7,5.7V591.9l-9,8ZM308.7,65.6c6.5,0,13,.1,19.4-.1,1,0,2-1.1,3-1.7-1-.6-2-1.6-3.1-1.7-12.6-.1-25.3-.1-37.9,0-1,0-2,1.1-2.9,1.8,1,.6,2,1.6,3.1,1.6C296.4,65.7,302.5,65.6,308.7,65.6ZM241.5,64a5.19,5.19,0,0,0-5.2-5,5,5,0,0,0-5.1,5,5.16,5.16,0,1,0,10.3,0Zm10.3,2.7c3.2-.3,4.6-1.6,4.1-3.6a5.1,5.1,0,0,0-3.2-2.9,2.67,2.67,0,0,0-3.3,1.8,2.88,2.88,0,0,0-.1,1.3C249.6,64.7,251.1,65.9,251.8,66.7Z" transform="translate(-1.3 -40.6)"/></g><g id="Free_Movie" data-name="Free Movie"><path class="cls-4" d="M78.7,199.2v34.1l-.3,1a9.75,9.75,0,0,1-9.4,7.1c-19.4-.1-38.7,0-58,0a6.6,6.6,0,0,1-1.4-.1,9.76,9.76,0,0,1-8.3-9.5V200.7A9.66,9.66,0,0,1,5.1,193a11.12,11.12,0,0,1,4.3-1.9H70.6l.9.3a9.85,9.85,0,0,1,5.8,4.4A11.12,11.12,0,0,1,78.7,199.2Zm-38.6-4H17.9c-.9,0-.9,0-.9.9v40.2c0,1.1-.2,1.1,1.1,1.1H62.3c.7,0,.7,0,.7-.7V196.1c0-.7,0-.7-.7-.7h-.5ZM13,210.6v-3c0-.7-.1-.8-.7-.8h-6c-.6,0-.8.1-.8.8v6c0,.6.1.7.7.7h6.1c.6,0,.7-.1.7-.7v-3Zm57.9,3.7H74c.6,0,.7-.1.7-.7v-6.1c0-.6-.1-.7-.7-.7H67.9c-.6,0-.6.1-.6.7v6.2c0,.6.1.6.7.6ZM13,222.1V219c0-.6-.1-.7-.6-.7H6.3c-.6,0-.7.1-.7.7v6.1c0,.6.1.6.7.6h6.1c.6,0,.7-.1.7-.7a27.15,27.15,0,0,1-.1-2.9Zm54.2,0v3c0,.6.1.7.7.7H74c.6,0,.7-.1.7-.7v-6c0-.6-.1-.7-.8-.8H68c-.7,0-.8.1-.8.8v3ZM9.3,229.9H6.4c-.8,0-.9,0-.9.9v1.4a5.56,5.56,0,0,0,2,4,6.61,6.61,0,0,0,4.9,1.2c.5,0,.5-.3.5-.7v-6.1c0-.6-.1-.7-.7-.7Zm57.9,3.7v3c0,.7.1.8.8.8h1.5a5.67,5.67,0,0,0,4-2.1,6.86,6.86,0,0,0,1.2-5c0-.4-.4-.4-.7-.4H67.9c-.6,0-.7.1-.7.7v3ZM9.3,202.7h3.1c.4,0,.6-.1.6-.5v-6.4a.53.53,0,0,0-.6-.6H10.9a5.56,5.56,0,0,0-5.3,4.4,19.27,19.27,0,0,0-.1,2.4c0,.6.1.6.7.6C7.2,202.7,8.2,202.7,9.3,202.7Zm61.6,0h3c.7,0,.8-.1.8-.7v-1.4a5.28,5.28,0,0,0-1.9-4,6.79,6.79,0,0,0-5.1-1.4c-.4,0-.5.3-.5.6V202c0,.5.2.6.6.6,1.1.1,2.1.1,3.1.1Z" transform="translate(-1.3 -40.6)"/><path class="cls-4" d="M28.4,216.3c0-3.7.1-7.5,0-11.2a2.1,2.1,0,0,1,3.4-1.9c4.7,2.9,9.4,5.7,14.2,8.5l4.6,2.7a2.2,2.2,0,0,1,1.2,1.6,2,2,0,0,1-1.1,2.1l-7.5,4.5c-3.8,2.2-7.5,4.5-11.3,6.7a6.12,6.12,0,0,1-1.2.5,1.92,1.92,0,0,1-2.1-1.7v-8.9Z" transform="translate(-1.3 -40.6)"/><path class="cls-4" d="M571.2,537.1c.3-.3.5-.6.8-.9a45.74,45.74,0,0,1,9.6-8.5,34.48,34.48,0,0,1,5.4-2.8,2,2,0,0,1,1.5-.1,1.93,1.93,0,0,1,1.4,1.7,1.83,1.83,0,0,1-1.2,1.9,23.94,23.94,0,0,0-2.8,1.3c-1,.6-2,1.2-3.1,1.8a.71.71,0,0,0-.3.6c.4,2.3.9,4.6,1.3,6.9.1.5.1.5.5.3a21.45,21.45,0,0,1,5-1.2c.7-.1,1.4-.1,2.1-.2.5,0,.5,0,.5-.5V525.5a5,5,0,0,1,.2-1.2,2,2,0,0,1,2.2-1,1.92,1.92,0,0,1,1.5,1.8v14.8a1.94,1.94,0,0,1-1.5,2,4.82,4.82,0,0,1-1.2,0h-2.5a20.49,20.49,0,0,0-5.9,1.5,33.37,33.37,0,0,0-6.2,3.3c-3.4,2.2-6.7,4.7-9.9,7.1l-10.2,7.5a26.24,26.24,0,0,1-5.1,3,34,34,0,0,1-8.2,2.6,30.72,30.72,0,0,1-6.8.4,31.14,31.14,0,0,1-6.8-1.1A32,32,0,0,1,510.7,548a29.79,29.79,0,0,1-2.1-7.2,30.72,30.72,0,0,1-.4-6.8A31.55,31.55,0,0,1,535,504.5a30.82,30.82,0,0,1,17.2,2.3A32,32,0,0,1,567,519.9a30.11,30.11,0,0,1,3.8,10.5c.2,1.3.3,2.6.4,3.9ZM541.9,550a8,8,0,1,0,8-8h0a8,8,0,0,0-8,7.8v.2Zm-12.6,8a8,8,0,1,0-8-7.9,8,8,0,0,0,7.8,8,.31.31,0,0,1,.2-.1Zm35-27.5a7.9,7.9,0,1,0-8,7.9,8,8,0,0,0,8-7.9Zm-24.7-4.2a8,8,0,0,0,.3-15.9h-.3a8,8,0,1,0,0,15.9ZM523,522.5a8,8,0,1,0,8,7.9,8,8,0,0,0-8-7.9Zm16.6,18.3a5,5,0,1,0-5-5A5,5,0,0,0,539.6,540.8Zm39.4-6.3-.3.3c-.9.9-1.8,1.7-2.6,2.6s-1.8,2-2.6,3a1,1,0,0,0-.2.9c.2.5.4,1.1.6,1.6s.4,1.1.6,1.7h.1c1.8-1.1,3.6-2.2,5.4-3.2a.4.4,0,0,0,.2-.4c-.2-1-.4-2.1-.6-3.1-.2-1.2-.4-2.3-.6-3.4Zm-8.6,10.1a6.37,6.37,0,0,0-1,1.8,6.12,6.12,0,0,1-.5,1.2c-.2.4-.3.8-.5,1.2.1,0,.2-.1.3-.1l1.9-1.4c.6-.4.6-.4.3-1.1a14.24,14.24,0,0,0-.5-1.6Z" transform="translate(-1.3 -40.6)"/><path class="cls-5" d="M373.5,475h-175c-1.1-.5-2.1-1-3.2-1.4-10.9-3.8-18.2-11.3-22.9-21.6-1.2-2.6-1.9-5.3-2.9-8V273a16.57,16.57,0,0,0,1.4-3.7c1.9-8,6.8-13.9,13.1-18.9,8.6-6.9,18.8-8.4,29.2-8.4q71.25-.3,142.5,0a160.66,160.66,0,0,1,16.9,1.5c14,1.7,30.4,15.6,30.4,35.7q-.15,79.2,0,158.5c0,8.9-3.1,16.6-8.4,23.5S381.7,472.2,373.5,475ZM185.7,358.2h0v35.5c0,14.8,0,29.6.1,44.5.1,9.3,4.9,15.9,13.2,19.4,3.7,1.6,8.1,2,12.2,2q75.15.15,150.4.1h3.5a21.85,21.85,0,0,0,21.2-18.4,58.69,58.69,0,0,0,.9-9.4q.15-60,0-119.9c0-10.3.2-20.7,0-31-.2-10.1-4.9-17.7-14.4-21.4-3.6-1.4-7.8-1.5-11.7-1.5q-74.7-.15-149.4-.1c-2.3,0-4.7.1-7,.3a18.47,18.47,0,0,0-5.7,1.5c-8.4,4-13.2,10.4-13.2,20C185.8,305.9,185.8,332.1,185.7,358.2Z" transform="translate(-1.3 -40.6)"/><path class="cls-5" d="M435.5,424c-2.4,2.4-4.8,4.6-8.6,4.2-4.5-.4-7.1-2.6-7.6-7.1-.2-2.1-.1-4.3-.1-6.5,0-37.3.1-74.6-.1-111.9-.1-11.9-.1-24.1-2.1-35.8-3.4-20.2-16-33.1-35.8-38.6a59.6,59.6,0,0,0-15.8-2.1c-44.8-.2-89.6-.2-134.4-.3a41.46,41.46,0,0,1-7.9-.7,6.84,6.84,0,0,1-6.2-6.2,9.38,9.38,0,0,1,3.1-8.5,13.25,13.25,0,0,1,2.5-1.6h120a49.54,49.54,0,0,0,5.4.6c6.8.1,13.6-.2,20.4.4a107.81,107.81,0,0,1,19.6,2.9c12.6,3.4,23,10.5,31.6,20.5a61.64,61.64,0,0,1,14.3,31.8c.6,4.6,1.1,9.2,1.7,13.8Z" transform="translate(-1.3 -40.6)"/><path class="cls-5" d="M244.4,362.5v-36c0-1.3,0-2.7.1-4,.6-13.1,11.6-14.8,19.1-11.6a62.3,62.3,0,0,1,9.2,4.9c17,10.5,33.9,21.1,50.9,31.7,2.1,1.3,4.1,2.8,6.1,4.2,7.6,5.4,8.1,14.7.9,20.7a103.43,103.43,0,0,1-11,7.7c-16.6,10.4-33.3,20.8-50.1,31a28.18,28.18,0,0,1-11.6,4c-7.7.8-12.7-3.9-13.2-11.7-.4-5.8-.2-11.6-.3-17.5-.1-7.7-.1-15.6-.1-23.4Zm70.8.1a20,20,0,0,0-2.2-1.9c-16-9.9-31.9-19.9-47.9-29.7-3.4-2.1-4.4-1.5-4.4,2.5q-.15,29,0,57.9c0,4.5.8,4.9,4.5,2.6l38.1-23.7C307.1,367.7,310.9,365.3,315.2,362.6Z" transform="translate(-1.3 -40.6)"/><path class="cls-4" d="M96,477.7H35.7c-1.8-1-2.4-2.5-2.4-4.6.1-11.7,0-23.4,0-35.1,0-2.4.1-2.4,2.5-2.4H96.7a9.83,9.83,0,0,1,1.6.5v39.1A4.35,4.35,0,0,1,96,477.7Zm-34.7-8.2a5.64,5.64,0,0,0,1.2-.4c3.9-2.3,7.9-4.5,11.8-6.8a3.46,3.46,0,0,0,1.1-1c.9-1.3.5-2.9-1.1-3.9a26.94,26.94,0,0,0-2.9-1.6c-3-1.7-5.9-3.4-8.9-5.1a2.74,2.74,0,0,0-4.2,2.3v13.3a5.08,5.08,0,0,0,.3,1.7A2.81,2.81,0,0,0,61.3,469.5Zm18.1-31.2a3.51,3.51,0,0,0,.5.8c1.1,1.3,2.3,2.6,3.3,3.9a1.68,1.68,0,0,0,1.5.7h7.5a2.92,2.92,0,0,0,.9-.2,2.09,2.09,0,0,0-.4-.6c-1.1-1.3-2.2-2.5-3.3-3.8a2.14,2.14,0,0,0-1.8-.9H80.5a10.42,10.42,0,0,1-1.1.1Zm-27.2,5.2-.6-.9c-1-1.2-2.1-2.4-3.1-3.6a1.73,1.73,0,0,0-1.6-.7H39.5a2.92,2.92,0,0,0-.9.2,3.51,3.51,0,0,0,.5.8c1,1.2,2.1,2.4,3.1,3.7a1.77,1.77,0,0,0,1.7.8h7.3A2.37,2.37,0,0,1,52.2,443.5Zm6.9-5.2v.3c1.2,1.4,2.4,2.9,3.6,4.3a1.81,1.81,0,0,0,1.7.7h7.5c.3,0,.5-.1.8-.1-.1-.2-.2-.3-.3-.5-1.1-1.4-2.3-2.7-3.4-4.1a2.14,2.14,0,0,0-1.7-.8H59.8a1.85,1.85,0,0,1-.7.2Z" transform="translate(-1.3 -40.6)"/><path class="cls-4" d="M32.6,428.7c-.1-3,1-4.3,3.5-4.6,3.7-.5,7.3-1,11-1.4,5.5-.7,11-1.4,16.5-2.2L86,417.6c1.9-.2,3.7-.5,5.5-.8a4.48,4.48,0,0,1,1.1-.1c2.6-.2,4,1,4.4,3.6.2,1.5.4,3.1.6,4.6.2,1.3-.1,1.6-1.4,1.8-2.4.4-4.9.7-7.4,1l-18.4,2.4c-7.5,1-15,2-22.6,2.9-4.2.5-8.4,1.1-12.6,1.7a2.77,2.77,0,0,1-.9.1c-.8,0-1.1-.2-1.3-1A35.21,35.21,0,0,0,32.6,428.7Zm59.2-9.1-.2-.2h-.7c-2.5.3-5,.7-7.5,1a1.9,1.9,0,0,0-1.6,1c-.9,1.5-1.9,2.9-2.8,4.4a1.85,1.85,0,0,0-.2.7l8.8-1.2a1,1,0,0,0,.7-.4c1.2-1.8,2.4-3.5,3.5-5.3Zm-53.7,12a2.77,2.77,0,0,0,.9.1c2.6-.3,5.2-.7,7.8-1.1a1.55,1.55,0,0,0,1.1-.8c1-1.4,1.8-2.8,2.7-4.2a1.85,1.85,0,0,0,.2-.7,6.37,6.37,0,0,1-.7-.2h-.3c-2.4.3-4.8.6-7.1,1a2,2,0,0,0-1.1.6C40.4,428,39.4,429.7,38.1,431.6Zm33.5-9.4a1.48,1.48,0,0,0-.7-.1c-2.7.4-5.4.7-8.2,1.1a1.37,1.37,0,0,0-.8.5c-1.1,1.6-2.1,3.3-3.2,5a.77.77,0,0,0,.1.3h.9c2.5-.3,4.9-.6,7.4-1a2.81,2.81,0,0,0,1.1-.5c1-1.7,2.1-3.4,3.4-5.3Z" transform="translate(-1.3 -40.6)"/><path class="cls-4" d="M566.1,343.1H521.8a4.88,4.88,0,0,1,.3-.7l12.3-24.6a1.17,1.17,0,0,1,1.1-.7h17c.6,0,.8.2,1.1.7,4.1,8.2,8.1,16.3,12.2,24.5A3.39,3.39,0,0,1,566.1,343.1Z" transform="translate(-1.3 -40.6)"/><path class="cls-4" d="M571.9,299.4a46.35,46.35,0,0,1-56.1-.1.6.6,0,0,1-.1.4v24.2c0,.7,0,.8.7.7,1.7-.1,2.3.5,2.2,2.3,0,.7,0,.7-.7.7h-7.3c-.7,0-.7,0-.7-.7-.1-1.8.5-2.4,2.2-2.3.7,0,.7,0,.7-.7V299.5a.87.87,0,0,0-.5-.9,4.26,4.26,0,0,1-2.2-5,4.37,4.37,0,0,1,4.6-3.3,4.39,4.39,0,0,1,3.8,5.9c-.2.6-.2.8.3,1.2a38.15,38.15,0,0,0,9.9,5.4c1.3.5,2.6.9,4,1.3a50.27,50.27,0,0,0,10.3,1.6,47,47,0,0,0,11.2-1.3,40.29,40.29,0,0,0,9.7-3.6,52.87,52.87,0,0,0,5-3.2c.8-.5.8-.6.5-1.5a4.37,4.37,0,0,1,2.8-5.5c.1,0,.2-.1.3-.1a4.43,4.43,0,0,1,5.3,3.4,4.23,4.23,0,0,1-2.3,4.7,1,1,0,0,0-.6.9v24.3c0,.8,0,.8.8.8h.7a1.32,1.32,0,0,1,1.3,1.3c0,2,.2,1.6-1.4,1.6h-6.5c-.7,0-.7,0-.7-.7-.1-1.7.5-2.4,2.2-2.3.7,0,.7,0,.7-.7V301.4A7.4,7.4,0,0,0,571.9,299.4Z" transform="translate(-1.3 -40.6)"/><path class="cls-4" d="M537.5,295c.2-1.2.3-2.5.5-3.7.1-.5.1-1,.2-1.5a2.09,2.09,0,0,0-.7-1.8c-1-1-2-2.1-3-3.1-.3-.3-.7-.6-.6-1.2s.7-.5,1.1-.5l4.6-.9a2.07,2.07,0,0,0,1.4-1c.7-1.4,1.5-2.8,2.3-4.3.2-.3.3-.6.7-.6s.6.3.8.6c.7,1.3,1.5,2.6,2.1,4a2.17,2.17,0,0,0,2,1.4c1.5.2,2.9.5,4.4.7.1,0,.3.1.4.1.4.2.6.5.3.9a1,1,0,0,1-.4.5c-1,1.1-2,2.2-3.1,3.3a2.2,2.2,0,0,0-.7,2c.2,1.5.4,3,.7,4.5v.4a.68.68,0,0,1-1,.7,24,24,0,0,1-2.3-1.1c-.8-.4-1.6-.7-2.3-1.1a2.12,2.12,0,0,0-1.9,0c-1.4.7-2.9,1.4-4.4,2.1C537.9,295.9,537.5,295.7,537.5,295Z" transform="translate(-1.3 -40.6)"/></g></svg>