<svg id="Layer_1" data-name="Layer 1" xmlns="http://www.w3.org/2000/svg" viewBox="0 0 588.06 559.4"><defs><style>.cls-1,.cls-5{fill:#338cb7;}.cls-1,.cls-2{isolation:isolate;}.cls-1{opacity:0.1;}.cls-2{fill:#fff;opacity:0.1;}.cls-3{fill:#b4bcbe;}.cls-4{fill:#b2c9d3;}</style></defs><g id="Frame"><g id="Circle"><path id="Left" class="cls-1" d="M111.9,146.2c-44.1,36.8-74.5,83-91.6,137.7A276.07,276.07,0,0,0,8.7,343c-.2,1.1-.4,2.3-.7,3.4v46c1.2,8.7,2.2,17.4,3.6,26.1a285.32,285.32,0,0,0,39.8,105A290.71,290.71,0,0,0,117,597.3c1,.8,2,1.7,3,2.6h3V137.4C119.3,140.2,115.6,143.2,111.9,146.2Z" transform="translate(-6.56 -40.6)"/><path id="Right" class="cls-1" d="M590.4,339.6A279.58,279.58,0,0,0,565.9,249Q536.05,184.5,483,142.3v455c5.6-5,11.2-9.9,16.7-15A288.19,288.19,0,0,0,566,490.2a293.15,293.15,0,0,0,24.1-85.5c.8-6.4,1.3-12.9,1.9-19.3V354.5C591.5,349.5,590.9,344.5,590.4,339.6Z" transform="translate(-6.56 -40.6)"/></g><rect id="Mobile_LCD" data-name="Mobile LCD" class="cls-2" x="120.54" y="43.3" width="350.9" height="516.1"/><path id="Mobile" class="cls-3" d="M477.2,599.9c-.1-2.5-.2-5-.2-7.5V110c0-5.1-.4-10-2.8-14.5-4-7.7-10.7-11-19.1-11.5-1-.1-2,0-3,0q-149.85-.15-299.6-.1c-8.5,0-15.9,2.3-20.4,10-1.8,3-2.6,6.8-3.5,10.2a20.81,20.81,0,0,0-.1,5V592.5c0,2.5-.2,5-.3,7.5h-6c-3-1.8-4.1-4.6-4.2-8s-.1-7-.1-10.5v-303c.1-2-.4-3.5-2.6-4.3-2.8-1-3.5-3.3-3.5-6v-30c0-2.8.8-5,3.6-5.9,2.2-.7,2.5-2.3,2.4-4.3a41.7,41.7,0,0,1,0-5c.1-2.2-.5-3.8-2.8-4.6s-3.2-2.7-3.2-5.1c0-10.3-.1-20.7.1-31,0-1.7,1.1-4.4,2.4-4.9,3.4-1.5,3.5-3.9,3.4-6.9V104c0-35.6,30.7-63.5,62.8-63.4q122.7.3,245.3,0c26.5,0,53.3,19.2,60.6,47.7.5,1.9,1.1,3.8,1.7,5.7V591.9l-9,8ZM308.7,65.6c6.5,0,13,.1,19.4-.1,1,0,2-1.1,3-1.7-1-.6-2-1.6-3.1-1.7-12.6-.1-25.3-.1-37.9,0-1,0-2,1.1-2.9,1.8,1,.6,2,1.6,3.1,1.6C296.4,65.7,302.5,65.6,308.7,65.6ZM241.5,64a5.19,5.19,0,0,0-5.2-5,5,5,0,0,0-5.1,5,5.16,5.16,0,1,0,10.3,0Zm10.3,2.7c3.2-.3,4.6-1.6,4.1-3.6a5.1,5.1,0,0,0-3.2-2.9,2.67,2.67,0,0,0-3.3,1.8,2.88,2.88,0,0,0-.1,1.3C249.6,64.7,251.1,65.9,251.8,66.7Z" transform="translate(-6.56 -40.6)"/></g><g id="Security"><path class="cls-4" d="M61,429.3c1.4.3,2.9.5,4.3.9a27.82,27.82,0,0,1,20.1,21.3,22,22,0,0,1,.5,4.4c.1,3.2,0,6.4,0,9.6,0,1.1,0,1.1-1.1,1.1H76.6c-1,0-1.1,0-1.1-1.1v-8a17,17,0,0,0-2.8-9.8,17.26,17.26,0,0,0-13.1-8,16.65,16.65,0,0,0-12.3,3.6,16.34,16.34,0,0,0-6.5,12c-.2,3.1-.1,6.1-.2,9.2v1.1c0,.9-.1.9-1,.9H31c-.8,0-.9-.1-.9-.9,0-3.7-.1-7.4.1-11a25.69,25.69,0,0,1,3.4-11.1,27.47,27.47,0,0,1,8.3-9.3,27.91,27.91,0,0,1,11.4-4.7c.6-.1,1.2-.2,1.7-.3Z" transform="translate(-6.56 -40.6)"/><path class="cls-4" d="M58,531.1H24.7a5,5,0,0,1-5-3.1,7.51,7.51,0,0,1-.5-2.6V474.9a7.65,7.65,0,0,1,.6-3,5.37,5.37,0,0,1,4.8-2.9H90.7a8.42,8.42,0,0,1,2.7.4,5.08,5.08,0,0,1,3.4,4.9v51a5.69,5.69,0,0,1-1.3,4,5.26,5.26,0,0,1-4.2,1.8Zm6.9-48.8h-14a3.76,3.76,0,0,0-3.5,3.9,3.63,3.63,0,0,0,2.7,3.3,8.75,8.75,0,0,0,1.6.2H78.9a3.72,3.72,0,0,0,3.5-4,3.41,3.41,0,0,0-.7-1.9,3.59,3.59,0,0,0-3.3-1.6c-4.4.1-9,.1-13.5.1Zm0,21.5h14a3.44,3.44,0,0,0,3.4-2.8,3.51,3.51,0,0,0-1.5-3.9,4.39,4.39,0,0,0-2.7-.7H50.9a3.77,3.77,0,0,0-2.8,6,3.56,3.56,0,0,0,3.2,1.5c4.5-.1,9.1-.1,13.6-.1Zm0,6.6H51a3.76,3.76,0,0,0-3.5,2.6,3.46,3.46,0,0,0,1.3,4,3.77,3.77,0,0,0,2.7.8H79a3.69,3.69,0,0,0,3.4-4,2.66,2.66,0,0,0-.3-1.2,3.59,3.59,0,0,0-3.5-2.2Zm-27-28.1h-.7a3.77,3.77,0,0,0-3.6,3.4,3.61,3.61,0,0,0,2.8,3.9,7.08,7.08,0,0,0,2.9,0,3.8,3.8,0,0,0,2.7-4.4c0-.1-.1-.2-.1-.3-.5-1.7-1.8-2.6-4-2.6Zm0,21.5h.6a3.63,3.63,0,0,0,3.8-3.6,3.69,3.69,0,0,0-3.1-3.8,5.45,5.45,0,0,0-2.2-.1,3.78,3.78,0,0,0-3.3,4.1,1.88,1.88,0,0,0,.2.8,3.8,3.8,0,0,0,4,2.6Zm0,6.6h-.6a3.75,3.75,0,0,0-3.6,3.3,3.7,3.7,0,0,0,2.7,4,7,7,0,0,0,2.5.1,3.79,3.79,0,0,0,3.2-4.2c0-.2-.1-.3-.1-.5-.5-1.8-1.9-2.7-4.1-2.7Z" transform="translate(-6.56 -40.6)"/><path class="cls-4" d="M44,177.11h-3.3c-1.6-.1-3.1-.2-4.7-.4-2-.2-4.1-.5-6.1-.8a46.89,46.89,0,0,1-9.1-2.4,33.76,33.76,0,0,1-8.3-4.1,15.37,15.37,0,0,1-4.4-4.4,9.13,9.13,0,0,1-1.4-4.3,7.7,7.7,0,0,1,1.2-4.4,18,18,0,0,1,4.2-4.5,26.89,26.89,0,0,1,5.5-3.1,44.81,44.81,0,0,1,10-3.2c1.8-.4,3.7-.7,5.5-1l5-.6a12.1,12.1,0,0,1,1.9-.1c1.9,0,3.8-.1,5.7-.1a48.86,48.86,0,0,1,5.4.3,76.79,76.79,0,0,1,8.2,1.1,53.64,53.64,0,0,1,8.1,2.2,32.73,32.73,0,0,1,8.4,4.1,16.94,16.94,0,0,1,4.1,3.9,8.39,8.39,0,0,1,1.7,5.9,9.08,9.08,0,0,1-1.9,4.5,18.89,18.89,0,0,1-4.7,4.2,37.44,37.44,0,0,1-10.5,4.5,57.79,57.79,0,0,1-9.2,1.9c-1.4.2-2.8.3-4.2.4A42.88,42.88,0,0,1,44,177.11Z" transform="translate(-6.56 -40.6)"/><path class="cls-4" d="M54.86,195.91a2.2,2.2,0,0,1,.9-2.2,2.1,2.1,0,0,1,1.1-.4,12,12,0,0,0,4.2-1.2,40.25,40.25,0,0,0,5.7-3.3,47.65,47.65,0,0,1,6.3-3.4,4.88,4.88,0,0,1,4.4.1,42.24,42.24,0,0,1,6.6,3.6,38.83,38.83,0,0,0,5.2,3,12,12,0,0,0,4.2,1.2,2.16,2.16,0,0,1,2,2.1c0,.8-.1,1.6-.1,2.3-.1,1.1-.2,2.3-.4,3.4-.2,2-.6,3.9-1,5.9a46.27,46.27,0,0,1-2.5,8,35.92,35.92,0,0,1-6,9.9,32,32,0,0,1-6.7,6,22.61,22.61,0,0,1-2.6,1.6,2,2,0,0,1-2.3,0,32.71,32.71,0,0,1-8.3-6.5,38.58,38.58,0,0,1-5.1-7.1,42.2,42.2,0,0,1-3.2-7.6,50.81,50.81,0,0,1-1.9-8.6c-.3-2.1-.5-4.2-.7-6.3A.55.55,0,0,0,54.86,195.91Z" transform="translate(-6.56 -40.6)"/><path class="cls-4" d="M81.46,165.61v.4c0,1.8-.1,3.6-.1,5.5v6.7a4.1,4.1,0,0,1-.1,1.1c-.1.4-.1.4-.5.2-.7-.3-1.5-.6-2.2-.9a9.38,9.38,0,0,0-4.4-.5,12.89,12.89,0,0,0-4.6,1.4,44.75,44.75,0,0,0-7.4,4.1c-1.1.7-2.2,1.4-3.3,2a14.17,14.17,0,0,1-1.8.8c-.5.1-1,.1-1.5.2a8.59,8.59,0,0,0-6.9,5.4,6.53,6.53,0,0,0-.5,2c-.1.3-.2.4-.4.4a1.27,1.27,0,0,0-.6.1c-.9,0-1.9.1-2.8.1-1.4,0-2.8-.1-4.3-.1a14.77,14.77,0,0,1-2.1-.1c-2-.2-4-.4-6-.7s-4.3-.7-6.4-1.2a46.64,46.64,0,0,1-8.2-2.8,25.18,25.18,0,0,1-6.3-3.8,13.57,13.57,0,0,1-3.6-4.3,7.3,7.3,0,0,1-.9-3.5v-11.8a.6.6,0,0,1,.1-.4.6.6,0,0,1,.1.4,8.06,8.06,0,0,0,1.9,4.3,17.86,17.86,0,0,0,4.6,4.1,39,39,0,0,0,10.3,4.4,66,66,0,0,0,7.7,1.7c1.8.3,3.7.4,5.5.6a90.32,90.32,0,0,0,10.4.3,38.84,38.84,0,0,0,4.8-.4c1.5-.1,2.9-.3,4.4-.5a58.61,58.61,0,0,0,12.3-3.2,35.18,35.18,0,0,0,6.7-3.4,15,15,0,0,0,4.4-4.3,8.5,8.5,0,0,0,1.5-4.1v-.1Z" transform="translate(-6.56 -40.6)"/><path class="cls-4" d="M58.36,227.71c-.9.1-1.8.3-2.6.4l-4.4.6a7.57,7.57,0,0,1-1.5.1c-.9,0-1.7.1-2.6.1-1.6,0-3.2.1-4.9.1a39.08,39.08,0,0,1-4.9-.3c-1.6-.1-3.2-.3-4.8-.5a58.16,58.16,0,0,1-8.3-1.7,39.54,39.54,0,0,1-11.9-5.2,13.8,13.8,0,0,1-4.7-4.9,8.87,8.87,0,0,1-1.2-4.2v-11.7a.6.6,0,0,1,.1-.4,1.09,1.09,0,0,1,.1.5,9.86,9.86,0,0,0,2.2,4.6,18.65,18.65,0,0,0,5.4,4.3,37.6,37.6,0,0,0,10.2,4.1c2.2.5,4.3,1,6.5,1.4,1.7.3,3.4.5,5.2.7a83.61,83.61,0,0,0,10,.4c1.6,0,3.1-.2,4.7-.3h.1c.7-.1.7-.1.9.6a47,47,0,0,0,4.5,8.6c.5.8,1.1,1.5,1.6,2.3A1.38,1.38,0,0,1,58.36,227.71Z" transform="translate(-6.56 -40.6)"/><path class="cls-4" d="M6.66,182.91l.3,1.5a9.06,9.06,0,0,0,2.2,3.8,21.21,21.21,0,0,0,6.4,4.7,42.66,42.66,0,0,0,9,3.4,66.79,66.79,0,0,0,8.7,1.7c1.5.2,2.9.3,4.4.4s3.3.2,4.9.2h5.2c.3,0,.4.1.5.4a19.67,19.67,0,0,0,.3,2.4c.3,2,.6,4,1,6.1a33.83,33.83,0,0,0,.8,3.4c.1.5.1.5-.4.5-2.4.1-4.8.2-7.1.2-1.6,0-3.3-.2-4.9-.2a51,51,0,0,1-6.7-.8,60.38,60.38,0,0,1-7.1-1.6,55.19,55.19,0,0,1-8.8-3.4,21.53,21.53,0,0,1-5.5-4,10.52,10.52,0,0,1-3-5.2,7.72,7.72,0,0,1-.2-1.5v-11.7q-.15,0,0-.3Z" transform="translate(-6.56 -40.6)"/><path class="cls-4" d="M498.62,246.8a6.62,6.62,0,0,1,2.1-3.1,6.16,6.16,0,0,1,3.7-1.3h84.4a5.72,5.72,0,0,1,5.3,3.3,11.73,11.73,0,0,0,.5,1.1v8.4a6.9,6.9,0,0,1-2.2,3.3,23.86,23.86,0,0,1-2.2,1.2H503c-.8-.5-1.7-.9-2.5-1.4a6,6,0,0,1-1.9-3v-8.5Zm38.3,1.1c0,1.6.3,1.9-1.7,1.2h-.1c-1.6-.5-1.6-.5-2,1.1v.1a.53.53,0,0,0,.4.7l1.8.6c.7.2.7.4.4.9a14.31,14.31,0,0,1-1.1,1.5c-.5.6-.5.7.2,1.1,1.4.9,1.1,1,2.1-.3,1.1-1.6,1.1-1.6,2.3,0,1,1.3.6,1.4,2.1.3.5-.4.5-.7.1-1.1a17,17,0,0,1-1-1.4c-.4-.6-.3-.8.4-1a9.83,9.83,0,0,1,1.6-.5c.5-.1.8-.4.5-.9a1.85,1.85,0,0,1-.2-.7c-.1-.5-.4-.8-.9-.5a9.83,9.83,0,0,1-1.6.5c-.6.2-.9,0-1-.6v-1.7c0-.5-.2-.7-.7-.7-1.5-.1-1.6,0-1.6,1.4Zm19.5-.1V247c0-.5-.2-.7-.7-.7-1.5-.1-1.6,0-1.6,1.5,0,1.9,0,1.9-1.8,1.3-2-.6-1.4-.6-2.1,1-.2.5-.1.7.4.8s1.3.4,1.9.6.6.4.3.9-.8,1.1-1.2,1.6a.52.52,0,0,0,0,.8c1,1.1,1.5,1.1,2.4-.1v-.1c1-1.5,1.1-1.4,2.2,0s.6,1.5,2.3.3c.4-.3.4-.5.1-.9s-.7-.9-1-1.3c-.7-.9-.6-1,.4-1.3a14.24,14.24,0,0,0,1.6-.5c.4-.1.5-.3.4-.7-.4-1.6-.5-1.7-2.1-1.2h-.1c-1.8.8-1.4.4-1.4-1.2Zm21,2.7a9.29,9.29,0,0,1-.4-1.3c-.1-.5-.4-.7-.9-.5a8.8,8.8,0,0,1-1.5.5c-.8.2-1,0-1-.8v-1.2c0-1.1,0-1.1-1.1-1.1s-1.1,0-1.1,1.1v.5c0,2,0,1.8-1.7,1.2-1.5-.5-1.5-.5-2.1,1-.2.6,0,.8.5.9s1.1.3,1.6.5c.8.3.9.4.4,1.1A9.06,9.06,0,0,0,569,254a.63.63,0,0,0,0,.6,3.07,3.07,0,0,0,1.4.9c.2,0,.6-.6.9-1a.35.35,0,0,0,.1-.2c1-1.4,1.1-1.4,2.1,0,1.2,1.6.8,1.3,2.3.4.5-.3.4-.6.1-1l-.9-1.2c-.6-.9-.6-1,.4-1.3.5-.2,1-.3,1.5-.5C577,250.9,577.22,250.7,577.42,250.5ZM523,255.8c.4-.3.8-.5,1.2-.8s.6-.6.2-1.1-.8-1.1-1.2-1.6c-.3-.3-.2-.6.2-.7a5.64,5.64,0,0,1,1.2-.4c1.8-.6,1.5-.2.9-2.1-.1-.4-.3-.5-.7-.3-.7.2-1.4.5-2.1.7-.4.1-.6,0-.6-.4v-1.3c0-1.5-.1-1.5-1.6-1.4a.53.53,0,0,0-.6.6v1.5c0,.9-.2,1.1-1.1.8a8.8,8.8,0,0,1-1.5-.5c-.4-.2-.7-.1-.9.4-.6,1.5-.6,1.6.9,2h.1c1.8.6,1.8.6.6,2.1s-.9,1.2.4,2.2a.53.53,0,0,0,.9-.2l.9-1.2c.6-.8.8-.8,1.4,0l.9,1.2Z" transform="translate(-6.56 -40.6)"/><path class="cls-4" d="M534.22,235h-16a6.56,6.56,0,0,1-6.6-5.2c0-.2-.1-.3-.1-.5-.1-3.9-.2-7.9,1.5-11.6a19.45,19.45,0,0,1,11.8-11,1.23,1.23,0,0,1,1.2.2,20.27,20.27,0,0,0,6.7,3,22.17,22.17,0,0,0,14.8-1.2c1.2-.5,2.2-1.2,3.4-1.8.2-.1.5-.3.6-.2a20.45,20.45,0,0,1,3.1,1.3c.5.3.1.7-.3.9a6.52,6.52,0,0,0-2.1,1.6,6.31,6.31,0,0,0-1.3,3.9v17.1a4.76,4.76,0,0,0,.6,2.8c.4.7.3.8-.5.8h-7.6Z" transform="translate(-6.56 -40.6)"/><path class="cls-4" d="M538.52,171.3a17.35,17.35,0,0,1-.2,34.7,17.35,17.35,0,1,1,.2-34.7Z" transform="translate(-6.56 -40.6)"/><path class="cls-4" d="M567.52,235h-10.7c-2.4,0-3.7-1.3-3.7-3.7V214.4a3.47,3.47,0,0,1,3.2-3.7c.6,0,.6-.4.6-.8a26.8,26.8,0,0,1,.2-4,9.84,9.84,0,0,1,5.9-8.2,10.4,10.4,0,0,1,11.9,2.2,10.91,10.91,0,0,1,3,7.3V210c0,.5.1.8.7.9a3.28,3.28,0,0,1,3.1,3.5v17.2a3.28,3.28,0,0,1-3.6,3.5C574.72,235,571.12,235,567.52,235Zm-.1-24.2H573c.9,0,.9,0,.9-.9v-3a6.42,6.42,0,0,0-8.4-5.9,6.14,6.14,0,0,0-4.4,6v2.9c0,.9,0,.9.9.9Zm-1.3,14.4h0v.4c0,1.7,0,1.7,1.7,1.7,1.1,0,1.2-.2,1.2-1.3s-.3-2.4.7-3.5a2.29,2.29,0,0,0-.2-3,2.5,2.5,0,0,0-3-.6,2.6,2.6,0,0,0-.9,4,2.45,2.45,0,0,1,.6,1.6c-.1.1-.1.4-.1.7Z" transform="translate(-6.56 -40.6)"/><path class="cls-5" d="M450.5,291.7v75.8c-1,5-2.1,10-3.1,15.1-3.7,18-12.8,32.9-25.3,46-13.4,14.1-28.5,26.3-44,38.2q-36.75,28.2-73.6,56.3h-5c-4.5-3.7-8.9-7.5-13.5-11-19.9-15.2-40-30.3-59.9-45.6-16.6-12.8-33-25.8-46.9-41.5-9.5-10.7-16.9-22.6-20.4-36.6-1.6-6.2-2.9-12.6-4.3-18.9V285.7c.5-9.3,1.4-18.5,1.6-27.8.3-16.6.3-33.2.4-49.8.1-8.3.2-8.5,8.8-8.5,19.5-.1,39,.5,58.4-1.7,28.5-3.3,53.7-13.6,74.2-34.1,3.9-3.9,5.1-3.7,9.2-.1,4.9,4.3,9.7,8.6,15,12.4,18.5,13.2,39.6,19.3,62,21.7,18.1,1.9,36.2,1.9,54.4,1.8,9.8,0,10,.3,10.1,10q.6,38.85,1.5,77.7A34.25,34.25,0,0,0,450.5,291.7Zm-15.1.5h-.5c-.1-1.8-.2-3.6-.2-5.5q-.6-32.85-1.1-65.8c-.1-5.9-.2-6-6.3-6.2-12-.5-24-.8-35.9-1.5-31.5-1.8-60.5-10.7-85.2-31.1-2.6-2.1-4.4-2-6.9.1a115.94,115.94,0,0,1-27.6,17.7c-21,9.9-43.4,13.4-66.4,14.2-9.3.3-18.6.4-28,.6-4.9.1-5.3.5-5.4,5.6-.2,12.3-.4,24.6-.7,36.9-.4,15.6-1,31.2-1.2,46.8-.2,19.3-.4,38.5-.1,57.8.4,25.5,11.2,46.5,30,63.4,10.6,9.5,21.5,18.8,32.8,27.5,21.4,16.6,43.1,32.8,64.6,49.2,5.7,4.4,5.1,4.2,10.5.1q29.4-22.2,58.7-44.7c16.1-12.4,32.2-24.8,45.8-39.9A111.1,111.1,0,0,0,426,398.5c7.4-12.9,9.3-27.3,9.6-41.8.3-16.6,0-33.2-.1-49.8C435.4,302.1,435.4,297.2,435.4,292.2Z" transform="translate(-6.56 -40.6)"/><path class="cls-5" d="M302.7,236.4c46.3.1,84.2,38,83.9,84.3-.2,45.8-37.6,83.4-84.4,83.5-46.2.1-84-38.3-83.9-84.4C218.5,274,256.5,236.4,302.7,236.4Zm-69.2,83.7c-.6,37.7,30,69,69,69.1a68.37,68.37,0,0,0,69-67.8v-.8c.1-38.7-30.1-69.4-68.8-69.4C262.3,251.3,232.8,283.8,233.5,320.1Z" transform="translate(-6.56 -40.6)"/><path class="cls-5" d="M275,305.6c1.5.9,4,1.9,5.8,3.7,5.3,5.2,10.5,10.6,15.5,16.1,2.1,2.3,3.5,2.1,5.6,0,9.7-9.9,19.5-19.6,29.3-29.3a29.07,29.07,0,0,1,3.7-3.3c3.6-2.4,7.2-1.7,10.2,1.7,2.4,2.7,2.4,5.7-.6,8.9-3.5,3.8-7.2,7.4-10.9,11-9,8.9-17.9,17.9-26.9,26.8-6,5.9-8.8,6-14.6.2-7.8-7.9-15.7-15.7-23.6-23.6-2.2-2.2-2.5-4.9-1.2-7.8C268.8,307.2,271.2,306.2,275,305.6Z" transform="translate(-6.56 -40.6)"/><path class="cls-4" d="M575.66,453.58c-.3.9-.8,2.1-1.5,2.4a5,5,0,0,1-3.6.2c-1.5-.5-1.6-2.1-1.3-3.6.6-2.7,1.3-5.3,1.7-8.1,1.3-7.8-.6-15-4.5-21.5a34.19,34.19,0,0,0-23.4-16.9c-10.3-2.1-19.4.3-27.6,6.6l-3.6,3c-1.6,1.4-3.8,1.6-5,.4s-1-3.8.4-5.2c3.6-3.4,11-10.7,24.4-11.9,22-1.9,36.1,11.9,41,21.4C580.06,431.88,577.86,450.88,575.66,453.58Z" transform="translate(-6.56 -40.6)"/><path class="cls-4" d="M507.16,469.78c-5.8-6.2-12.4-13.4-11.5-32.3.1-1.8,1.2-2.4,2.7-2.4,1.7,0,2.9.6,3.2,2.4a17.39,17.39,0,0,1,.1,3.2c0,9.8,3.8,18.1,10.5,24.9a34,34,0,0,0,43.4,4.3,8.34,8.34,0,0,1,1.2-.8,3.21,3.21,0,0,1,4.4.9,3.88,3.88,0,0,1-.9,4.7C553.06,481.88,525.26,489.08,507.16,469.78Z" transform="translate(-6.56 -40.6)"/><path class="cls-4" d="M567.56,441.38a28.79,28.79,0,0,1-5.3,17.3,29.15,29.15,0,0,1-13.5,10.5c-3.9,1.6-7.9,3.1-12.2,3.1a29.62,29.62,0,0,1-13.1-2.7,38.6,38.6,0,0,1-6.5-3.9,3.91,3.91,0,0,1-1.4-5.2c1.2-1.8,3.3-2,5.4-.7,1.8,1.1,3.5,2.2,5.3,3.2,8.7,4.7,19.7,1.8,26.2-4.1,5.6-5.3,8.6-11.7,8.4-19.4a24,24,0,0,0-6.2-15,23,23,0,0,0-12.4-8,32.09,32.09,0,0,0-4.3-.7,11.53,11.53,0,0,1-2.6-.3,3.57,3.57,0,0,1-2.6-3.8c.2-1.7,1.3-2.5,3.3-2.7a28.34,28.34,0,0,1,19,5.9C563.56,421.28,567.66,429.88,567.56,441.38Z" transform="translate(-6.56 -40.6)"/><path class="cls-4" d="M536.26,454.78c7.4.3,14.3-6.5,15.5-12.9,1.1-5.6-1.8-11.4-4.4-11.4-6.6-2.8-1.5-9.4,4.2-5.1,5.9,4.3,6,10.5,5.4,17.9-5.2,24.6-36.3,20.3-40.1,2.7-1-4.5-2.6-14.3,5-20.6,5.2-4.7,9.9.8,3.7,4.9-4.4,4-5.1,10.4-3,15.9C524.86,452.08,530.06,454.58,536.26,454.78Z" transform="translate(-6.56 -40.6)"/><path class="cls-4" d="M505,438.58a35.84,35.84,0,0,1,3-12.4c2-4.2,4.4-6.8,8.4-9.9,6.7-4.3,6.9.8,6.7,1.8a6.16,6.16,0,0,1-2.1,3.1,24,24,0,0,0-8.8,14.2,40.19,40.19,0,0,0-.6,5c-.3,2.4-1.2,3.3-3.3,3.4-2.4.1-3.2-.6-3.3-3A16.13,16.13,0,0,1,505,438.58Z" transform="translate(-6.56 -40.6)"/><path class="cls-4" d="M531.46,426.48c-.5-5.1,2.3-7.5,5.9-7.4s5.2,3.4,4.6,7.4c-.7,4.2-.4,5.1-1.3,9.2-.3,1.5-1.3,4.6-4,4.6-3,0-3-2.3-3.5-4.3C532.36,433,531.56,427.18,531.46,426.48Z" transform="translate(-6.56 -40.6)"/><path class="cls-4" d="M536.46,453.48c-3.2,0-5-1.9-5-5.1s2-5.1,5.3-5.1,5.1,2,5,5.3S539.76,453.48,536.46,453.48Z" transform="translate(-6.56 -40.6)"/></g></svg>