<svg id="Layer_1" data-name="Layer 1" xmlns="http://www.w3.org/2000/svg" viewBox="0 0 587.36 559.4"><defs><style>.cls-1,.cls-5{fill:#338cb7;}.cls-1,.cls-2{isolation:isolate;}.cls-1{opacity:0.1;}.cls-2{fill:#fff;opacity:0.1;}.cls-3{fill:#b4bcbe;}.cls-4{fill:#b2c9d3;}</style></defs><g id="Frame"><g id="Circle"><path id="Left" class="cls-1" d="M111.9,146.2c-44.1,36.8-74.5,83-91.6,137.7A276.07,276.07,0,0,0,8.7,343c-.2,1.1-.4,2.3-.7,3.4v46c1.2,8.7,2.2,17.4,3.6,26.1a285.32,285.32,0,0,0,39.8,105A290.71,290.71,0,0,0,117,597.3c1,.8,2,1.7,3,2.6h3V137.4C119.3,140.2,115.6,143.2,111.9,146.2Z" transform="translate(-8 -40.6)"/><path id="Right" class="cls-1" d="M590.4,339.6A279.58,279.58,0,0,0,565.9,249Q536.05,184.5,483,142.3v455c5.6-5,11.2-9.9,16.7-15A288.19,288.19,0,0,0,566,490.2a293.15,293.15,0,0,0,24.1-85.5c.8-6.4,1.3-12.9,1.9-19.3V354.5C591.5,349.5,590.9,344.5,590.4,339.6Z" transform="translate(-8 -40.6)"/></g><rect id="Mobile_LCD" data-name="Mobile LCD" class="cls-2" x="119.1" y="43.3" width="350.9" height="516.1"/><path id="Mobile" class="cls-3" d="M477.2,599.9c-.1-2.5-.2-5-.2-7.5V110c0-5.1-.4-10-2.8-14.5-4-7.7-10.7-11-19.1-11.5-1-.1-2,0-3,0q-149.85-.15-299.6-.1c-8.5,0-15.9,2.3-20.4,10-1.8,3-2.6,6.8-3.5,10.2a20.81,20.81,0,0,0-.1,5V592.5c0,2.5-.2,5-.3,7.5h-6c-3-1.8-4.1-4.6-4.2-8s-.1-7-.1-10.5v-303c.1-2-.4-3.5-2.6-4.3-2.8-1-3.5-3.3-3.5-6v-30c0-2.8.8-5,3.6-5.9,2.2-.7,2.5-2.3,2.4-4.3a41.7,41.7,0,0,1,0-5c.1-2.2-.5-3.8-2.8-4.6s-3.2-2.7-3.2-5.1c0-10.3-.1-20.7.1-31,0-1.7,1.1-4.4,2.4-4.9,3.4-1.5,3.5-3.9,3.4-6.9V104c0-35.6,30.7-63.5,62.8-63.4q122.7.3,245.3,0c26.5,0,53.3,19.2,60.6,47.7.5,1.9,1.1,3.8,1.7,5.7V591.9l-9,8ZM308.7,65.6c6.5,0,13,.1,19.4-.1,1,0,2-1.1,3-1.7-1-.6-2-1.6-3.1-1.7-12.6-.1-25.3-.1-37.9,0-1,0-2,1.1-2.9,1.8,1,.6,2,1.6,3.1,1.6C296.4,65.7,302.5,65.6,308.7,65.6ZM241.5,64a5.19,5.19,0,0,0-5.2-5,5,5,0,0,0-5.1,5,5.16,5.16,0,1,0,10.3,0Zm10.3,2.7c3.2-.3,4.6-1.6,4.1-3.6a5.1,5.1,0,0,0-3.2-2.9,2.67,2.67,0,0,0-3.3,1.8,2.88,2.88,0,0,0-.1,1.3C249.6,64.7,251.1,65.9,251.8,66.7Z" transform="translate(-8 -40.6)"/></g><g id="download"><path class="cls-4" d="M590.5,507.5v4.3a9,9,0,0,1-5.3,6.8H533.4c-.1-.1-.3-.1-.4-.2a8.81,8.81,0,0,1-7.3-5.4,19.78,19.78,0,0,1-1.4-5.3,9.55,9.55,0,0,1,2.1-7.4,11.11,11.11,0,0,1,6.9-3.8c1.8-.3,2.7-1.2,3.2-3.2,1.4-5.5,4.6-9.6,10.4-10.9a25.55,25.55,0,0,1,6.2-.4,10.91,10.91,0,0,1,6.9,2.8c.9.9,1.9,1.7,2.8,2.7a1.73,1.73,0,0,0,2.2.5,13.46,13.46,0,0,1,5.6-.9,12,12,0,0,1,11.8,11.3,2,2,0,0,0,1.4,2A10.18,10.18,0,0,1,590.5,507.5Z" transform="translate(-8 -40.6)"/><path class="cls-4" d="M504.4,501.6a10.94,10.94,0,0,1,3.2-6.2,12.35,12.35,0,0,1,5.1-2.9c1.7-.4,1.8-.6,1.9-2.3.4-4.6,2-8.6,5.9-11.5a13.79,13.79,0,0,1,13.7-1.8c1.5.5,1.6.6,2.6-.7a23.07,23.07,0,0,1,7.5-6.4,16.26,16.26,0,0,1,7.5-1.5,15.8,15.8,0,0,1,8.5,2.1,50.35,50.35,0,0,1,5.2,3.9c1.1,1,1,1.7-.2,2.8-1.4,1.3-2.8,2.5-4.2,3.9a1.42,1.42,0,0,1-1.9.3,14.66,14.66,0,0,0-7.4-2,22.55,22.55,0,0,0-5.8.8,15.91,15.91,0,0,0-10.3,8.1,15.54,15.54,0,0,0-1.7,4,2.65,2.65,0,0,1-2.2,2.1,19,19,0,0,0-6.3,3.3,12.57,12.57,0,0,0-4.2,7.9,14.65,14.65,0,0,0,1.1,8c.6,1.5.4,1.9-1.2,1.9-2.5,0-5.1-.1-7.6-.3-3-.2-8.5-4.6-8.9-9a6.75,6.75,0,0,1-.2-1.4Z" transform="translate(-8 -40.6)"/><path class="cls-5" d="M157.1,389.7a37.12,37.12,0,0,1,1.9-4,8.47,8.47,0,0,1,9.4-4,8.22,8.22,0,0,1,6,7.7c.3,6.8-.3,13.7.9,20.3,2.4,14.1,10.6,24.4,23.7,30.6a45.18,45.18,0,0,0,19.9,4c11.3-.1,22.6.1,34-.1,9.8-.1,19.6-.7,29.4-.6,34.8.1,69.6.2,104.4.7,15.1.2,27.4-5,36.7-16.6,5-6.3,8.3-13.6,8.5-21.9.1-3.8,0-7.6.1-11.4a39.8,39.8,0,0,1,.8-5.9,8.17,8.17,0,0,1,6.6-7.2c3.5-.9,6.1.6,8.5,3a17.38,17.38,0,0,1,1.3,1.5v27.9a14.17,14.17,0,0,0-.8,1.8c-4.4,19-15.2,32.9-33.2,40.9-5.1,2.3-10.7,3.4-16.1,5.1h-192a6.7,6.7,0,0,0-1.8-.7q-34.8-6.9-45.8-40.5c-.9-2.8-1.6-5.7-2.4-8.5Z" transform="translate(-8 -40.6)"/><path class="cls-5" d="M291.8,352.5V232.3c0-3-.1-6.1,2.5-8.3s5.4-3.2,8.8-1.9a8.3,8.3,0,0,1,5.8,6.9,33.33,33.33,0,0,1,.2,5.5V351.9c2.1-2,3.4-3,4.5-4.1,7.4-7.4,14.9-14.8,22.3-22.2,2.2-2.2,4.5-3.8,7.8-3.8,6.3.1,10,5.9,7.3,11.5a16.37,16.37,0,0,1-3.6,4.7q-19.2,18.9-38.5,37.7a12.16,12.16,0,0,1-17.2.2l-.2-.2c-10.4-10.1-20.5-20.4-30.8-30.6-2.4-2.4-4.7-4.7-7-7.1a23.66,23.66,0,0,1-2.9-3.4,8.18,8.18,0,0,1,.8-10.5,9,9,0,0,1,11.1-.7,23.52,23.52,0,0,1,3.3,3c7.2,7.4,14.3,14.8,21.5,22.2C288.6,349.7,289.9,350.7,291.8,352.5Z" transform="translate(-8 -40.6)"/><path class="cls-4" d="M9,546.4a12.5,12.5,0,0,0,.3-1.9,19.11,19.11,0,0,1,1-5.3,37.11,37.11,0,0,1,2.2-5.5,20.64,20.64,0,0,1,11.7-10.4,24.58,24.58,0,0,1,7.1-1.2,12.37,12.37,0,0,1,1.8.2,6,6,0,0,1-2.4,1.6,36.12,36.12,0,0,0-6,3.5,7.11,7.11,0,0,0-1.5,1.5,2.74,2.74,0,0,0-.4,3.2c.5,1.1.9,2.2,1.4,3.2a2.16,2.16,0,0,1-1.2,2.9c-.1,0-.2.1-.3.1l-4.6,1.2a1.11,1.11,0,0,0-.9,1.2c0,1.5-.2,3.1-.2,4.6,0,1.1.1,1.3,1.1,1.7,1.3.5,2.7,1.1,4,1.7a2.1,2.1,0,0,1,1,2.9c-.7,1.2-1.4,2.3-2.1,3.5a1.88,1.88,0,0,0,.2,2.6c.9,1.1,1.9,2.2,2.9,3.3.7.8.8.7,1.8.3l4.4-1.8a2.49,2.49,0,0,1,2.6,1.4c.3,1.3.6,2.5.9,3.8.1.2.1.5.2.7a1.43,1.43,0,0,0,1.5,1.2c.8,0,1.6.1,2.3.1a11,11,0,0,1,1.8.2,1.51,1.51,0,0,0,2-1.1c.6-1.4,1.1-2.8,1.7-4.2a2.07,2.07,0,0,1,2.9-.9c1.4.8,2.8,1.6,4.2,2.5.5.3.8.3,1.2-.1,1.4-1.2,2.7-2.4,4.1-3.6a1.06,1.06,0,0,0,.2-1.4c-.7-1.4-1.2-2.9-1.8-4.4a2.22,2.22,0,0,1,1.1-2.5l4.5-1.2c1.1-.3,1.4-.5,1.5-1.6l.3-4.5a1.42,1.42,0,0,0-1.1-1.6c-1.1-.5-2.3-.9-3.4-1.3a5.36,5.36,0,0,1-1.1-.5,1.74,1.74,0,0,1-.2-2.8c1.2-.9,2.5-1.8,3.8-2.6a3.07,3.07,0,0,0,1.4-2.2c.7-3.3.5-6.6.6-9.9,0-.6-.1-.8-.8-.8l-9,.3H40.6a7.6,7.6,0,0,1-1.4-.1c.3-.4.4-.6.6-.9l11.3-12.2L70.9,488c.5-.5.8-.3,1.1.1,1.6,1.6,3.3,3.2,4.9,4.8,7.1,7,14.2,14,21.2,21,2.3,2.3,4.7,4.6,7,6.8v.2a2.92,2.92,0,0,1-.9.2c-3.6.1-7.1.2-10.7.2H84.1c-1.1,0-1.1,0-1.1,1.1v4.8a35.4,35.4,0,0,1-.6,7.3c-.3,1.8-.4,3.7-.8,5.6a46.37,46.37,0,0,1-1.7,6.4,61.55,61.55,0,0,1-2.8,7.1,42.5,42.5,0,0,1-5.1,8.1,38.42,38.42,0,0,1-8.2,7.9,35.43,35.43,0,0,1-7.3,4.2,39.8,39.8,0,0,1-12.6,3.3,1.85,1.85,0,0,0-.7.2H37.9c-.2-.1-.5-.1-.7-.2-1.3-.2-2.6-.2-3.8-.5a57.2,57.2,0,0,1-5.9-1.7,28.29,28.29,0,0,1-10-6.3,25.74,25.74,0,0,1-5-6.4A27,27,0,0,1,9,550.5a3.54,3.54,0,0,0-.3-1.1Z" transform="translate(-8 -40.6)"/><path class="cls-4" d="M50.9,543.8c.3,6-5.2,11.2-11.1,11.2a11.2,11.2,0,1,1,0-22.4C46,532.5,51.3,538.1,50.9,543.8Zm-6.8,0a4.23,4.23,0,0,0-4.4-4.5,4.09,4.09,0,0,0-4.3,4.3c.1,2.6,1.8,4.5,4.3,4.5A4.07,4.07,0,0,0,44.1,543.8Z" transform="translate(-8 -40.6)"/><path class="cls-4" d="M101.5,238.7c-.3.5-.7,1-1,1.6-1.1,2-2.3,3.9-3.4,5.9l-3.3,5.7a25.29,25.29,0,0,1-1.3,2.2c-.3.5-.4.5-.6,0-.9-1.6-1.8-3.1-2.7-4.7s-2-3.5-3-5.2l-3.3-5.7v-.3H88c.5,0,.5,0,.5-.5a23.63,23.63,0,0,0-.8-4.5c-.3-1.3-.9-2.6-1.3-3.8a24.51,24.51,0,0,0-2.6-5.1,26,26,0,0,0-4.8-5.7,30.74,30.74,0,0,0-7.9-5.4,38.11,38.11,0,0,0-6.7-2.4c-1.4-.3-2.9-.4-4.4-.6a14.77,14.77,0,0,0-2.1-.1c-.3,0-.5-.1-.4-.5v-6.2c0-.4.1-.5.5-.5l3.8.3a25.12,25.12,0,0,1,2.7.4,18.46,18.46,0,0,1,2.3.4,38,38,0,0,1,21.6,14.5,37.21,37.21,0,0,1,3.5,5.8,39.2,39.2,0,0,1,2.3,6,45.35,45.35,0,0,1,1.3,6.4v.9c0,.6.1.7.7.7h5.2Z" transform="translate(-8 -40.6)"/><path class="cls-4" d="M57.5,219.9h2.1c1.1-.1,1.6.5,1.6,1.6V224c0,.4.1.6.5.7.8.2,1.5.5,2.3.7.3.1.4.1.6-.2l1.8-2.4a1.29,1.29,0,0,1,1.8-.3c1.2.9,2.5,1.8,3.7,2.7a1.24,1.24,0,0,1,.3,1.9c-.6.8-1.1,1.6-1.7,2.3a.61.61,0,0,0-.1.6c.5.7,1.1,1.4,1.6,2.1.2.3.3.3.6.2l2.7-.9a1.34,1.34,0,0,1,1.7.8c.5,1.4.9,2.8,1.4,4.2.3.9.1,1.6-.6,1.9a5.64,5.64,0,0,1-1.2.4,10.93,10.93,0,0,1-1.7.5.55.55,0,0,0-.4.6v2.5a.55.55,0,0,0,.4.6c.8.2,1.6.5,2.5.8s1.4.7,1,2a20.94,20.94,0,0,1-.8,2.3l-.6,1.8c-.3.9-.8,1.2-1.9.9-.9-.3-1.8-.6-2.6-.9-.3-.1-.4,0-.5.2-.5.7-1,1.4-1.6,2.1-.2.2-.1.4,0,.6a24.26,24.26,0,0,1,1.4,2,4.05,4.05,0,0,1,.5.9,1.28,1.28,0,0,1-.6,1.4c-1.2.8-2.4,1.7-3.6,2.6a1.23,1.23,0,0,1-2-.3c-.6-.7-1.1-1.5-1.6-2.2-.2-.3-.4-.3-.7-.2a15.19,15.19,0,0,1-2,.6c-.6.2-.6.2-.6.9v2.4a1.47,1.47,0,0,1-1.6,1.6H55.3a1.36,1.36,0,0,1-1.5-1.5v-2.6c0-.4-.1-.5-.5-.6a15.55,15.55,0,0,1-2.3-.8c-.2-.1-.4,0-.6.2-.6.8-1.1,1.6-1.7,2.3a1.14,1.14,0,0,1-1.8.3c-1.3-.9-2.5-1.8-3.8-2.7a1.24,1.24,0,0,1-.3-1.9,19.52,19.52,0,0,1,1.7-2.3c.2-.2.2-.3,0-.6-.5-.7-1.1-1.4-1.6-2.1-.2-.2-.3-.3-.5-.2-.9.3-1.7.6-2.6.9a1.32,1.32,0,0,1-1.9-1c-.4-1.3-.8-2.6-1.3-3.8a2.35,2.35,0,0,1-.2-.8,1.06,1.06,0,0,1,.9-1.2l2.7-.9c.4-.1.5-.2.5-.6V240a.55.55,0,0,0-.4-.6c-.9-.3-1.9-.6-2.8-.9a1.13,1.13,0,0,1-.8-1.5,27.59,27.59,0,0,0,.8-2.7c.2-.6.4-1.1.6-1.7a1.26,1.26,0,0,1,1.8-.9,27.59,27.59,0,0,0,2.7.8c.3.1.4,0,.6-.2.5-.7,1-1.4,1.5-2a.38.38,0,0,0,0-.6c-.6-.8-1.1-1.5-1.7-2.3a1.24,1.24,0,0,1,.3-1.9c.5-.4,1-.7,1.5-1.1.7-.5,1.5-1,2.2-1.6a1.14,1.14,0,0,1,1.9.3c.6.7,1.1,1.5,1.6,2.2.2.3.4.3.7.2a18.66,18.66,0,0,1,2.2-.7c.3-.1.4-.2.4-.6V222a3.08,3.08,0,0,1,.1-1,1,1,0,0,1,1.1-.9A13.71,13.71,0,0,1,57.5,219.9Zm0,13.5a7.51,7.51,0,0,0-7.7,7.4,7.59,7.59,0,0,0,7.7,8,7.7,7.7,0,1,0,0-15.4Z" transform="translate(-8 -40.6)"/><path class="cls-4" d="M32.4,243.8c-.2,0-.5.1-.7.1H27.3c-.6,0-.6,0-.5.5.1.7.1,1.4.2,2,0,.2.2.4.2.6a4.14,4.14,0,0,0,.5,1.9,30.13,30.13,0,0,0,2.8,7,36.62,36.62,0,0,0,4,5.7,29.69,29.69,0,0,0,6.6,5.6,23,23,0,0,0,5.2,2.6c1.3.5,2.6.9,3.9,1.3a21.36,21.36,0,0,0,3.5.6l3.4.3c.5,0,.6.1.6.6v5.9c0,.6-.2.7-.7.6a2.2,2.2,0,0,0-.8-.1,25.61,25.61,0,0,1-3.9-.3c-1.4-.3-2.7-.5-4.1-.8a22.88,22.88,0,0,1-2.8-.8,29.59,29.59,0,0,1-5.5-2.4c-1.3-.7-2.5-1.4-3.7-2.2a42.3,42.3,0,0,1-6.1-5.1,41.28,41.28,0,0,1-6.1-8.3,37.56,37.56,0,0,1-2.5-5.8c-.2-.7-.4-1.5-.6-2.3a28.06,28.06,0,0,1-.8-3.1c-.2-1.1-.3-2.3-.4-3.4-.1-.6-.1-.7-.7-.7H14.1c-.4,0-.5-.1-.3-.5,1.3-2.3,2.6-4.5,3.9-6.8,1.1-2,2.2-3.9,3.4-5.9.6-.9,1.1-1.9,1.7-2.8.2-.4.3-.4.5,0,1,1.8,2.1,3.6,3.1,5.4,1.5,2.6,3,5.1,4.5,7.7A20,20,0,0,0,32.4,243.8Z" transform="translate(-8 -40.6)"/><path class="cls-4" d="M519.7,249.9l-2.1-.6a5,5,0,0,1-2.9-2.8,5.82,5.82,0,0,1-.4-4.1,5.88,5.88,0,0,1,4.9-4.4c1.4-.1,2.8-.1,4.2-.1.8,0,1.6.1,2.4.1.4,0,.8-.1,1.2-.1h62.1a6,6,0,0,1,6.2,6.9,7,7,0,0,1-1.2,2.8,10.7,10.7,0,0,1-1.6,1.4,5.61,5.61,0,0,1-3.1.9.37.37,0,0,0-.3.1h-1c-.2,0-.4-.1-.6-.1H557.4a1.27,1.27,0,0,0-.6.1H555c-.2,0-.4-.1-.7-.1H520.6a1.27,1.27,0,0,0-.6.1Zm48.7-8.5H547.5c-.7,0-.7,0-.7.8v3.6c0,.6,0,.6.6.6h41.8a4.53,4.53,0,0,0,1.6-.3,2.59,2.59,0,0,0,1-3.4,2.77,2.77,0,0,0-2.3-1.3Z" transform="translate(-8 -40.6)"/><path class="cls-4" d="M587.3,190.8c-.6-.2-1.3-.2-1.9-.4-1.5-.3-3.1-.5-4.6-.8a.85.85,0,0,1-.8-.7c-.5-1.3-1.1-2.5-1.6-3.8a.74.74,0,0,1,.1-.9c1.1-1.5,2.1-3,3.1-4.5a1.61,1.61,0,0,0-.2-2.3l-2-2-4.7-4.7a1.86,1.86,0,0,0-2.5-.2c-1.4,1.1-2.9,2.1-4.4,3.1a.75.75,0,0,1-.8.1,19.44,19.44,0,0,0-4.2-1.7c-.2,0-.4-.2-.5-.5L562,170c-.2-1.4-.5-2.8-.7-4.1a1.59,1.59,0,0,0-1.8-1.4h-9.6a1.72,1.72,0,0,0-1.7,1.4c-.2,1-.4,2.1-.6,3.1a21.66,21.66,0,0,0-.4,2.5.63.63,0,0,1-.5.6,19.44,19.44,0,0,0-4.2,1.7.62.62,0,0,1-.7-.1c-1.5-1.1-2.9-2.1-4.4-3.1a1.75,1.75,0,0,0-2.5.2l-1.3,1.3-5.4,5.4a1.73,1.73,0,0,0-.2,2.4c1,1.5,2.1,3,3.1,4.5a.61.61,0,0,1,.1.8l-1.8,4.2c-.1.2-.2.3-.4.3-.4.1-.9.1-1.3.2-1.4.2-2.8.4-4.1.7l-1.4.3a1.5,1.5,0,0,0-1.1,1.5v10a1.62,1.62,0,0,0,1.4,1.6c2.2.4,4.4.7,6.6,1.1a.32.32,0,0,1,.3.3,37.89,37.89,0,0,0,1.8,4.2.76.76,0,0,1-.1.9c-1.1,1.5-2.1,3-3.2,4.5a3.55,3.55,0,0,0-.4.9h.1a1.47,1.47,0,0,0,.5,1.4l1.3,1.3,5.4,5.4a1.57,1.57,0,0,0,1.9.5,3.51,3.51,0,0,0,.8-.5l4.2-3a1,1,0,0,1,.9-.1,6.89,6.89,0,0,0,1.5.7,27.73,27.73,0,0,0,2.6,1c.2.1.4.1.5.4.1.5.2,1.1.3,1.6.2,1.4.4,2.7.7,4.1a1.6,1.6,0,0,0,1.8,1.5h9.7a1.71,1.71,0,0,0,1.6-1.3c0-.2.1-.4.1-.6.3-1.6.6-3.1.8-4.7a1,1,0,0,1,.8-.9c1.3-.5,2.6-1.1,3.9-1.6a.74.74,0,0,1,.9.1l4.2,3a1.82,1.82,0,0,0,2.7-.2l6.5-6.5a1,1,0,0,0,.4-.5,1.66,1.66,0,0,0-.1-1.9c-1.1-1.5-2.1-3-3.2-4.5a.78.78,0,0,1-.1-.8,37.89,37.89,0,0,0,1.8-4.2.22.22,0,0,1,.2-.2c.7-.1,1.4-.3,2.1-.4,1.6-.3,3.1-.5,4.7-.8a1.71,1.71,0,0,0,1.3-1.6v-10C588.4,191.5,588,190.9,587.3,190.8Zm-32.1,23A16.8,16.8,0,1,1,572,197,16.77,16.77,0,0,1,555.2,213.8Z" transform="translate(-8 -40.6)"/></g></svg>