<svg id="Layer_1" data-name="Layer 1" xmlns="http://www.w3.org/2000/svg" viewBox="0 0 584 559.4"><defs><style>.cls-1,.cls-5{fill:#338cb7;}.cls-1,.cls-2{isolation:isolate;}.cls-1{opacity:0.1;}.cls-2{fill:#fff;opacity:0.1;}.cls-3{fill:#b4bcbe;}.cls-4{fill:#b2c9d3;}</style></defs><g id="Frame"><g id="Circle"><path id="Left" class="cls-1" d="M111.9,146.2c-44.1,36.8-74.5,83-91.6,137.7A276.07,276.07,0,0,0,8.7,343c-.2,1.1-.4,2.3-.7,3.4v46c1.2,8.7,2.2,17.4,3.6,26.1a285.32,285.32,0,0,0,39.8,105A290.71,290.71,0,0,0,117,597.3c1,.8,2,1.7,3,2.6h3V137.4C119.3,140.2,115.6,143.2,111.9,146.2Z" transform="translate(-8 -40.6)"/><path id="Right" class="cls-1" d="M590.4,339.6A279.58,279.58,0,0,0,565.9,249Q536.05,184.5,483,142.3v455c5.6-5,11.2-9.9,16.7-15A288.19,288.19,0,0,0,566,490.2a293.15,293.15,0,0,0,24.1-85.5c.8-6.4,1.3-12.9,1.9-19.3V354.5C591.5,349.5,590.9,344.5,590.4,339.6Z" transform="translate(-8 -40.6)"/></g><rect id="Mobile_LCD" data-name="Mobile LCD" class="cls-2" x="119.1" y="43.3" width="350.9" height="516.1"/><path id="Mobile" class="cls-3" d="M477.2,599.9c-.1-2.5-.2-5-.2-7.5V110c0-5.1-.4-10-2.8-14.5-4-7.7-10.7-11-19.1-11.5-1-.1-2,0-3,0q-149.85-.15-299.6-.1c-8.5,0-15.9,2.3-20.4,10-1.8,3-2.6,6.8-3.5,10.2a20.81,20.81,0,0,0-.1,5V592.5c0,2.5-.2,5-.3,7.5h-6c-3-1.8-4.1-4.6-4.2-8s-.1-7-.1-10.5v-303c.1-2-.4-3.5-2.6-4.3-2.8-1-3.5-3.3-3.5-6v-30c0-2.8.8-5,3.6-5.9,2.2-.7,2.5-2.3,2.4-4.3a41.7,41.7,0,0,1,0-5c.1-2.2-.5-3.8-2.8-4.6s-3.2-2.7-3.2-5.1c0-10.3-.1-20.7.1-31,0-1.7,1.1-4.4,2.4-4.9,3.4-1.5,3.5-3.9,3.4-6.9V104c0-35.6,30.7-63.5,62.8-63.4q122.7.3,245.3,0c26.5,0,53.3,19.2,60.6,47.7.5,1.9,1.1,3.8,1.7,5.7V591.9l-9,8ZM308.7,65.6c6.5,0,13,.1,19.4-.1,1,0,2-1.1,3-1.7-1-.6-2-1.6-3.1-1.7-12.6-.1-25.3-.1-37.9,0-1,0-2,1.1-2.9,1.8,1,.6,2,1.6,3.1,1.6C296.4,65.7,302.5,65.6,308.7,65.6ZM241.5,64a5.19,5.19,0,0,0-5.2-5,5,5,0,0,0-5.1,5,5.16,5.16,0,1,0,10.3,0Zm10.3,2.7c3.2-.3,4.6-1.6,4.1-3.6a5.1,5.1,0,0,0-3.2-2.9,2.67,2.67,0,0,0-3.3,1.8,2.88,2.88,0,0,0-.1,1.3C249.6,64.7,251.1,65.9,251.8,66.7Z" transform="translate(-8 -40.6)"/></g><g id="Movie"><path class="cls-4" d="M503.7,318.7V314c0-1.6.1-1.8,1.9-1.8h59.6c.8.1,1.6.2,2.5.4v6.1Z" transform="translate(-8 -40.6)"/><path class="cls-4" d="M535.4,292.9H519.2c-1.8,0-1.8,0-1.8,1.8v12.2c0,1.9,0,1.9-1.9,1.9h-4.3c-1.1,0-1.5-.4-1.5-1.5V285.5c0-2.1,0-2.1,2.1-2.1h4.3c.3,0,.9-.3.9-.6.3-3.8,2-7.3,3-10.8.7-2.3,1.4-4.6,2.2-6.8a1.49,1.49,0,0,0-.6-2,.1.1,0,0,1-.1-.1c-3.9-2.8-7.8-5.6-11.6-8.4a13.66,13.66,0,0,1-2.5-2.3,1.78,1.78,0,0,1-.1-2.6,2.38,2.38,0,0,1,1.1-.6,15.26,15.26,0,0,1,3-.3h14.2c1.9,0,1.9,0,2.5-1.8,1.5-4.5,3-9.1,4.5-13.7a11.08,11.08,0,0,1,1.4-2.9c.9-1.3,2.1-1.2,3,0a9.06,9.06,0,0,1,1.1,2.2c1.6,4.8,3.1,9.6,4.7,14.4.5,1.7.5,1.7,2.4,1.7h14.5a8.92,8.92,0,0,1,3.2.5,1.54,1.54,0,0,1,1.4,1.6,1.61,1.61,0,0,1-.5,1.1,13.63,13.63,0,0,1-2.4,2.4c-3.8,2.8-7.6,5.6-11.5,8.3-1.5,1.1-1.6,1.3-1,3.2,1.5,4.4,2.9,8.9,4.3,13.3a17.29,17.29,0,0,1,.7,3.1c.1.9.5,1.1,1.2,1.1h4.7c1.6,0,1.6.2,1.6,1.5v22.3c0,1-.3,1.5-1.4,1.5-1.6-.1-3.2,0-4.8,0s-1.6-.2-1.7-1.7V295c0-2.2,0-2.2-2.2-2.2Zm13.5-9.6.1-.3-12.5-9.2a1.4,1.4,0,0,0-1.9.2c-2.5,1.9-5.1,3.7-7.7,5.6-1.5,1.1-3,2.2-4.5,3.4l.2.3Z" transform="translate(-8 -40.6)"/><path class="cls-5" d="M244.5,455c-2.5-1.6-5.3-2.8-7.4-4.8a15,15,0,0,1-4.2-15.5,15.39,15.39,0,0,1,11.8-11.6,27.36,27.36,0,0,1,6.4-.8c12.6-.1,25.2-.1,37.9,0,5.5,0,10.4,1.6,14.2,5.9a16,16,0,0,1-.9,22.6,7.55,7.55,0,0,1-1.4,1.1,44.77,44.77,0,0,1-5.6,3.2H244.5Z" transform="translate(-8 -40.6)"/><path class="cls-5" d="M178.8,455c-1.6-.8-3.4-1.4-4.9-2.2a16.17,16.17,0,0,1-7.9-18.6,16.35,16.35,0,1,1,23.7,18.5c-1.6.9-3.3,1.5-4.9,2.3Z" transform="translate(-8 -40.6)"/><path class="cls-5" d="M421.9,455c-5-2-9.4-4.5-11.7-9.9a16.31,16.31,0,0,1,30-12.8,1.42,1.42,0,0,1,.2.6c.5,1.4.9,2.8,1.4,4.2v3c-1.9,7.5-6.2,12.9-14,14.9Z" transform="translate(-8 -40.6)"/><path class="cls-5" d="M355.1,455c-1.5-.7-3.1-1.3-4.5-2a16.17,16.17,0,0,1-8.4-18.5c1.6-7,8.8-12.6,16.1-12.5a16.78,16.78,0,0,1,15.6,12.4,16.28,16.28,0,0,1-8.2,18.5c-1.5.8-3,1.4-4.5,2.1Z" transform="translate(-8 -40.6)"/><path class="cls-5" d="M236.2,294.3c0-12.9.4-25.9-.1-38.8-.8-19,19.8-32.9,38.2-23.9,26,12.8,52.4,25.1,78.6,37.5,7.8,3.7,14.2,8.5,17,17.1,3.8,11.4-.2,23.5-10.5,30-4.9,3.1-10.3,5.4-15.5,7.9-22.7,10.9-45.5,21.7-68.2,32.8-8.6,4.2-17.2,5.3-25.7.4s-13.7-12-13.7-22.1c0-13.7,0-27.3-.1-40.9Zm20.3.4c0,12.3.4,24.6-.1,36.8-.3,7.2,4.2,10.5,10.8,6.8.3-.2.6-.2.9-.4,26-12.5,52-24.9,78.1-37.4,2.5-1.2,4.7-2.7,4.6-5.8,0-3.3-2.2-4.9-4.9-6.2-26.4-12.6-52.8-25.1-79-37.9-5.5-2.7-10.8-.5-10.5,6.4.5,12.5.1,25.1.1,37.7Z" transform="translate(-8 -40.6)"/><path class="cls-4" d="M84.7,199.7c-.1.6-.1,1.2-.2,1.8a31.36,31.36,0,0,1-1.2,6.1,34.94,34.94,0,0,1-5.5,11.1c0,.1-.1.1-.2.2a10,10,0,0,1-.8-1.4c-2.5-4.3-5-8.7-7.5-13l-6.9-12-3.6-6.3c0-.1-.1-.1-.1-.2a.35.35,0,0,1,.1-.2H82c.6,0,.6,0,.8.6a34.35,34.35,0,0,1,1.7,7.2c.1.7.1,1.4.2,2.2a4.33,4.33,0,0,0,.1.5Z" transform="translate(-8 -40.6)"/><path class="cls-4" d="M48,232.7c-.6-.1-1.3-.1-1.9-.2s-.6-.1-.3-.6c.8-1.4,1.6-2.7,2.4-4.1,2-3.5,4-6.9,6-10.4l6.5-11.3,3.6-6.3.1-.2c.2-.4.3-.4.5,0,1,1.8,2.1,3.6,3.1,5.4l5.5,9.6c1,1.7,1.9,3.4,2.9,5a.48.48,0,0,1,0,.7h0c-.6.7-1.2,1.4-1.9,2.1a34.69,34.69,0,0,1-19.9,9.9l-2.8.3c-.1,0-.2,0-.2.1Z" transform="translate(-8 -40.6)"/><path class="cls-4" d="M22,176.8l1.2,2c2.1,3.6,4.2,7.3,6.3,10.9,1.8,3.1,3.6,6.3,5.4,9.4l6,10.3c0,.1.1.1.1.2s.1.3-.2.3h-23c-.8,0-.7,0-.9-.6a35,35,0,0,1-1.7-7.1,28.83,28.83,0,0,1-.3-5.9A35.23,35.23,0,0,1,21.7,177Z" transform="translate(-8 -40.6)"/><path class="cls-4" d="M34.9,196.4c-.4-.7-.8-1.3-1.1-1.9l-7.9-13.7c-.9-1.6-1.8-3.1-2.7-4.7-.3-.5-.3-.4.1-.8.7-.7,1.4-1.6,2.1-2.3a35.65,35.65,0,0,1,25.9-10,17.85,17.85,0,0,1,2.3.2c.5,0,.5.1.3.5l-2.4,4.2c-2,3.4-4,6.9-5.9,10.3-1.8,3.2-3.7,6.3-5.5,9.5-1.6,2.7-3.1,5.4-4.7,8.1C35.2,195.9,35.1,196.1,34.9,196.4Z" transform="translate(-8 -40.6)"/><path class="cls-4" d="M62.7,184.3H44.4c-.8,0-.8,0-.4-.7L50.1,173c1.7-3,3.4-6,5.2-9,.3-.5.3-.5.8-.4a34.65,34.65,0,0,1,24.2,17.5c.5.9.9,1.8,1.3,2.7.2.4.1.5-.3.5H62.7Z" transform="translate(-8 -40.6)"/><path class="cls-4" d="M17.7,211.5H55.9a9.25,9.25,0,0,0-.5,1c-1.9,3.2-3.7,6.4-5.6,9.7s-3.8,6.6-5.7,9.8a.6.6,0,0,1-.6.3,35.23,35.23,0,0,1-7.8-2.4,34.79,34.79,0,0,1-16.2-14.6c-.6-1.1-1.1-2.2-1.7-3.3A4.33,4.33,0,0,0,17.7,211.5Z" transform="translate(-8 -40.6)"/><path class="cls-4" d="M104.8,463.3v.8c-.1.4-.3.8-.4,1.2a244.19,244.19,0,0,1-8,29,69.42,69.42,0,0,1-5.1,11.5,19.26,19.26,0,0,1-6.8,6.8,59.43,59.43,0,0,1-18.6,7.2c-1.8.4-3.7.7-5.6,1H54.8a1.27,1.27,0,0,0-.6-.1,12.79,12.79,0,0,1-5.2-2,32.92,32.92,0,0,1-5.9-5.3,67.43,67.43,0,0,1-7.9-11.3,42.71,42.71,0,0,1-4.9-11.9,15.68,15.68,0,0,1-.4-4.3,38.53,38.53,0,0,1,2.3-11.1A221.72,221.72,0,0,1,46,442.7c.6-1.1,1.1-1.2,2.1-.3a97.23,97.23,0,0,0,20.6,12.8A85.33,85.33,0,0,0,92,461.9c3.6.5,7.3.6,11,.9C103.8,462.7,104.4,462.7,104.8,463.3ZM71.5,512.1l.3-.2a4,4,0,0,0,0-1.1,25,25,0,0,0-1.1-3.9,18.56,18.56,0,0,0-18.1-11.3,16.81,16.81,0,0,0-10.1,3.6c-.6.5-1.1,1.1-1.7,1.6l.1.3C53.1,499.3,63.3,503,71.5,512.1ZM64,468.4l-3.2.7a18.77,18.77,0,0,1-9.7-.1c-1.8-.6-3.7-1-5.5-1.6l-1.2-.3a10.38,10.38,0,0,0,8.7,8.4A10.28,10.28,0,0,0,64,468.4Zm26.8,15.7c-.6-.3-1.1-.5-1.6-.7-1.8-.8-3.6-1.7-5.4-2.5a14.88,14.88,0,0,1-5.3-4c-1-1.3-2-2.6-3.1-3.8l-.5-.5c-1.3,2.9-1.1,8.9,3,11.9C82.2,487.6,88.2,486.5,90.8,484.1Z" transform="translate(-8 -40.6)"/><path class="cls-4" d="M580.4,521.8v4.7a29.88,29.88,0,0,1-.9,3.2,58.72,58.72,0,0,1-14.1,22.8,15.05,15.05,0,0,1-8.5,4.7,5,5,0,0,0-1.2.2h-3.9c-.1,0-.3-.1-.4-.1a54.74,54.74,0,0,1-9.8-1.9,57.24,57.24,0,0,1-16-7,14.65,14.65,0,0,1-5.1-5.1c-1.3-2.3-2.6-4.6-3.7-6.9a116.7,116.7,0,0,1-5.9-16.6c-1.6-5.9-3.1-11.9-4.6-17.8-.3-1.3,0-1.6,1.3-1.7,2.8-.2,5.6-.3,8.5-.6a77,77,0,0,0,15.2-2.9,83.32,83.32,0,0,0,25.5-12.2c1.8-1.2,3.5-2.5,5.2-3.8,1.1-.8,1.5-.7,2.2.5,0,.1.1.1.1.2,3,6.2,6.1,12.3,8.9,18.5a103.63,103.63,0,0,1,6,16.4C579.7,518.1,580,519.9,580.4,521.8Zm-14.3,6.8-.3-.1a1.76,1.76,0,0,0-.5.4,22.55,22.55,0,0,1-7.1,4.7c-3.7,1.5-7.5,2.9-11.3,4.3a24.68,24.68,0,0,1-10.4,1.6c-.3,0-.5.1-.8.1a7.18,7.18,0,0,0,2.5,2.4,18.29,18.29,0,0,0,20.3-.3,17.67,17.67,0,0,0,7.5-10.8,17,17,0,0,1,.1-2.3Zm.9-21.8a11.16,11.16,0,0,0-3.4-3.1,9.9,9.9,0,0,0-6.7-1.4c-4.7.9-8,4.8-8.4,10.1a2.35,2.35,0,0,0,.2.8,1.88,1.88,0,0,0,.8-.2l4.5-2.7a14.07,14.07,0,0,1,4.5-2c2.5-.4,5-.9,7.4-1.3.3-.1.7-.1,1.1-.2Zm-46,16.7c1.2-.8,2.3-1.5,3.4-2.1a23.3,23.3,0,0,1,6.4-3c1.2-.3,2.5-.5,3.7-.8l4.1-.6c.5-.1.6-.3.3-.7-.1-.1-.2-.3-.3-.4a10.88,10.88,0,0,0-5.2-3.2c-3.4-.9-6.6-.4-9.2,2.1a10.89,10.89,0,0,0-3.3,7.8A2.77,2.77,0,0,0,521,523.5Z" transform="translate(-8 -40.6)"/></g></svg>