<?xml version="1.0" encoding="UTF-8"?>
<!DOCTYPE svg PUBLIC "-//W3C//DTD SVG 1.1//EN" "http://www.w3.org/Graphics/SVG/1.1/DTD/svg11.dtd">
<!-- Creator: CorelDRAW 2021.5 -->
<svg xmlns="http://www.w3.org/2000/svg" xml:space="preserve" width="1.66747in" height="1.66747in" version="1.1" style="shape-rendering:geometricPrecision; text-rendering:geometricPrecision; image-rendering:optimizeQuality; fill-rule:evenodd; clip-rule:evenodd"
viewBox="0 0 1666.66 1666.66"
 xmlns:xlink="http://www.w3.org/1999/xlink"
 xmlns:xodm="http://www.corel.com/coreldraw/odm/2003">
 <defs>
  <style type="text/css">
   <![CDATA[
    .fil0 {fill:none}
    .fil1 {fill:#7C8E94;fill-rule:nonzero}
   ]]>
  </style>
 </defs>
 <g id="Layer_x0020_1">
  <metadata id="CorelCorpID_0Corel-Layer"/>
  <rect class="fil0" width="1666.66" height="1666.66"/>
  <path class="fil1" d="M274.13 151.46l379.46 0c34.31,0 65.5,14.02 88.08,36.59 22.57,22.57 36.59,53.75 36.59,88.08l0 373.85c0,34.31 -14.02,65.51 -36.59,88.08 -22.57,22.57 -53.77,36.59 -88.08,36.59l-379.46 0c-34.33,0 -65.51,-14.02 -88.08,-36.59 -22.57,-22.57 -36.59,-53.77 -36.59,-88.08l0 -373.85c0,-34.33 14.02,-65.5 36.59,-88.08 22.57,-22.57 53.75,-36.59 88.08,-36.59zm739.75 736.93l379.46 0c34.33,0 65.51,14.02 88.08,36.59 22.57,22.57 36.59,53.75 36.59,88.08l0 373.84c0,34.33 -14.02,65.51 -36.59,88.08 -22.57,22.57 -53.75,36.59 -88.08,36.59l-379.46 0c-34.31,0 -65.5,-14.02 -88.08,-36.59 -22.57,-22.57 -36.59,-53.75 -36.59,-88.08l0 -373.84c0,-34.33 14.02,-65.52 36.59,-88.08 22.57,-22.57 53.75,-36.59 88.08,-36.59zm379.46 84.61l-379.46 0c-10.97,0 -20.99,4.52 -28.26,11.79 -7.28,7.28 -11.79,17.28 -11.79,28.27l0 373.84c0,10.98 4.52,20.99 11.79,28.26 7.27,7.28 17.28,11.79 28.26,11.79l379.46 0c10.97,0 20.99,-4.51 28.26,-11.79 7.27,-7.28 11.79,-17.28 11.79,-28.26l0 -373.84c0,-10.99 -4.52,-20.99 -11.79,-28.27 -7.28,-7.28 -17.29,-11.79 -28.26,-11.79zm-615.08 37.26l0 379.46c0,34.33 -14.02,65.51 -36.59,88.08 -22.57,22.57 -53.77,36.59 -88.08,36.59l-373.85 0c-34.33,0 -65.51,-14.02 -88.08,-36.59 -22.57,-22.57 -36.59,-53.75 -36.59,-88.08l0 -379.46c0,-34.31 14.02,-65.51 36.59,-88.08 22.57,-22.57 53.75,-36.59 88.08,-36.59l373.85 0c34.31,0 65.5,14.02 88.08,36.59 22.57,22.57 36.59,53.76 36.59,88.08zm-84.61 379.46l0 -379.46c0,-10.98 -4.52,-20.99 -11.79,-28.26 -7.28,-7.28 -17.28,-11.79 -28.26,-11.79l-373.85 0c-10.97,0 -20.99,4.52 -28.26,11.79 -7.27,7.28 -11.79,17.28 -11.79,28.26l0 379.46c0,10.98 4.52,20.99 11.79,28.26 7.28,7.28 17.29,11.79 28.26,11.79l373.85 0c10.97,0 20.98,-4.52 28.26,-11.79 7.28,-7.28 11.79,-17.28 11.79,-28.26zm320.23 -1238.26l379.46 0c34.33,0 65.51,14.02 88.08,36.59 22.57,22.57 36.59,53.75 36.59,88.08l0 373.85c0,34.31 -14.02,65.51 -36.59,88.08 -22.57,22.57 -53.75,36.59 -88.08,36.59l-379.46 0c-34.31,0 -65.5,-14.02 -88.08,-36.59 -22.57,-22.57 -36.59,-53.77 -36.59,-88.08l0 -373.85c0,-34.33 14.02,-65.5 36.59,-88.08 22.57,-22.57 53.77,-36.59 88.08,-36.59zm379.46 84.61l-379.46 0c-10.97,0 -20.99,4.52 -28.26,11.79 -7.28,7.27 -11.79,17.28 -11.79,28.26l0 373.85c0,10.97 4.52,20.99 11.79,28.26 7.27,7.27 17.28,11.79 28.26,11.79l379.46 0c10.97,0 20.99,-4.52 28.26,-11.79 7.27,-7.28 11.79,-17.29 11.79,-28.26l0 -373.85c0,-10.97 -4.52,-20.99 -11.79,-28.26 -7.28,-7.28 -17.29,-11.79 -28.26,-11.79zm-739.75 0l-379.46 0c-10.97,0 -20.99,4.52 -28.26,11.79 -7.27,7.27 -11.79,17.28 -11.79,28.26l0 373.85c0,10.97 4.52,20.99 11.79,28.26 7.28,7.27 17.29,11.79 28.26,11.79l379.46 0c10.97,0 20.98,-4.52 28.26,-11.79 7.28,-7.28 11.79,-17.29 11.79,-28.26l0 -373.85c0,-10.97 -4.52,-20.99 -11.79,-28.26 -7.28,-7.28 -17.28,-11.79 -28.26,-11.79z"/>
 </g>
</svg>
