<?xml version="1.0" encoding="UTF-8"?>
<!DOCTYPE svg PUBLIC "-//W3C//DTD SVG 1.1//EN" "http://www.w3.org/Graphics/SVG/1.1/DTD/svg11.dtd">
<!-- Creator: CorelDRAW 2021.5 -->
<svg xmlns="http://www.w3.org/2000/svg" xml:space="preserve" width="1.66747in" height="1.66747in" version="1.1" style="shape-rendering:geometricPrecision; text-rendering:geometricPrecision; image-rendering:optimizeQuality; fill-rule:evenodd; clip-rule:evenodd"
viewBox="0 0 1666.66 1666.66"
 xmlns:xlink="http://www.w3.org/1999/xlink"
 xmlns:xodm="http://www.corel.com/coreldraw/odm/2003">
 <defs>
  <style type="text/css">
   <![CDATA[
    .fil0 {fill:none}
    .fil1 {fill:#7C8E94}
   ]]>
  </style>
 </defs>
 <g id="Layer_x0020_1">
  <metadata id="CorelCorpID_0Corel-Layer"/>
  <rect class="fil0" width="1666.66" height="1666.66"/>
  <path class="fil1" d="M354.37 152.57l958.72 0c114.44,0 208.09,93.63 208.09,208.1l0 90.65 0 84.62 0 769.24c0,114.47 -93.65,208.1 -208.09,208.1l-958.72 0c-114.43,0 -208.08,-93.63 -208.08,-208.1l0 -769.24 0 -84.62 0 -90.65c0,-114.47 93.65,-208.1 208.08,-208.1zm568.8 526.17c9.49,-21.26 34.43,-30.8 55.69,-21.31 21.26,9.49 30.8,34.43 21.31,55.69l-255.88 572.15c-9.49,21.26 -34.43,30.8 -55.69,21.31 -21.26,-9.49 -30.8,-34.43 -21.31,-55.69l255.88 -572.15zm134.3 113c-16.52,-16.52 -16.52,-43.3 0,-59.82 16.52,-16.52 43.3,-16.52 59.81,0l220.17 220.17c16.52,16.52 16.52,43.3 0,59.81l-220.17 220.17c-16.52,16.52 -43.3,16.52 -59.81,0 -16.52,-16.52 -16.52,-43.3 0,-59.81l190.26 -190.26 -190.26 -190.26zm-507.28 -59.81c16.52,-16.52 43.3,-16.52 59.81,0 16.52,16.52 16.52,43.3 0,59.82l-190.26 190.25 190.26 190.25c16.52,16.52 16.52,43.3 0,59.81 -16.52,16.52 -43.3,16.52 -59.81,0l-220.17 -220.16c-16.52,-16.52 -16.52,-43.3 0,-59.81l220.17 -220.16zm66.88 -429.24c22.97,0 41.59,18.62 41.59,41.59 0,22.97 -18.62,41.59 -41.59,41.59 -22.97,0 -41.59,-18.62 -41.59,-41.59 0,-22.97 18.62,-41.59 41.59,-41.59zm-122.49 0c22.97,0 41.59,18.62 41.59,41.59 0,22.97 -18.62,41.59 -41.59,41.59 -22.97,0 -41.59,-18.62 -41.59,-41.59 0,-22.97 18.62,-41.59 41.59,-41.59zm-122.49 0c22.97,0 41.59,18.62 41.59,41.59 0,22.97 -18.62,41.59 -41.59,41.59 -22.97,0 -41.59,-18.62 -41.59,-41.59 0,-22.97 18.62,-41.59 41.59,-41.59zm-141.2 148.62l1205.68 0 0 -90.65c0,-33.87 -13.93,-64.73 -36.34,-87.15 -22.42,-22.43 -53.28,-36.35 -87.14,-36.35l-958.72 0c-33.85,0 -64.72,13.92 -87.14,36.35 -22.42,22.41 -36.34,53.27 -36.34,87.15l0 90.65zm1205.68 84.62l-1205.68 0 0 769.24c0,33.87 13.92,64.73 36.34,87.15 22.42,22.43 53.29,36.35 87.14,36.35l958.72 0c33.86,0 64.72,-13.92 87.14,-36.35 22.42,-22.41 36.34,-53.28 36.34,-87.15l0 -769.24z"/>
 </g>
</svg>
