<?xml version="1.0" encoding="UTF-8"?>
<!DOCTYPE svg PUBLIC "-//W3C//DTD SVG 1.1//EN" "http://www.w3.org/Graphics/SVG/1.1/DTD/svg11.dtd">
<!-- Creator: CorelDRAW 2021.5 -->
<svg xmlns="http://www.w3.org/2000/svg" xml:space="preserve" width="1.66747in" height="1.66747in" version="1.1" style="shape-rendering:geometricPrecision; text-rendering:geometricPrecision; image-rendering:optimizeQuality; fill-rule:evenodd; clip-rule:evenodd"
viewBox="0 0 1666.66 1666.66"
 xmlns:xlink="http://www.w3.org/1999/xlink"
 xmlns:xodm="http://www.corel.com/coreldraw/odm/2003">
 <defs>
  <style type="text/css">
   <![CDATA[
    .fil0 {fill:none}
    .fil1 {fill:#7C8E94;fill-rule:nonzero}
   ]]>
  </style>
 </defs>
 <g id="Layer_x0020_1">
  <metadata id="CorelCorpID_0Corel-Layer"/>
  <rect class="fil0" width="1666.66" height="1666.66"/>
  <path class="fil1" d="M1161.58 145.48l-655.71 0c-204.31,0.19 -369.97,165.86 -370.15,370.16l0 634.56c0.18,204.3 165.84,369.97 370.15,370.15l655.71 0.02c204.31,-0.2 369.98,-165.87 370.16,-370.17l0.01 -634.56c-0.19,-204.3 -165.86,-369.97 -370.16,-370.15l-0.01 -0.01zm283.44 321.51l-329.97 0 -139.61 -239.02 186.14 0c139.94,0.35 259.48,101.16 283.46,239.01l-0.02 0.01zm-681.1 0l-137.49 -239.02 266.51 0 137.49 239.02 -266.52 0zm-258.05 -239.02l38.07 0 137.49 239.02 -459.01 0c23.98,-137.86 143.52,-238.67 283.46,-239.02l-0.01 0zm655.71 1209.9l-655.71 0c-158.78,-0.16 -287.52,-128.89 -287.66,-287.7l-0.02 -600.69 1231.06 0 0 600.72c-0.15,158.77 -128.89,287.51 -287.69,287.65l0.02 0.02zm-48.65 -556.3l-334.2 -190.38c-13.69,-8.29 -29.44,-12.69 -45.47,-12.69 -16.03,0 -31.78,4.4 -45.48,12.69 -28.71,16.02 -46.53,46.34 -46.53,79.23 0,0.37 0.01,0.78 0.01,1.15l0 380.74c0.29,51.26 41.8,92.77 93.07,93.06 16.31,-0.22 32.35,-4.62 46.53,-12.71l334.2 -190.37c28.72,-16 46.54,-46.32 46.54,-79.21 0,-0.37 -0.01,-0.78 -0.01,-1.15 -0.76,-33.54 -19.31,-64.15 -48.64,-80.38l-0.01 0.01zm-33.84 99.42l-334.2 190.37c-3.88,2.13 -8.25,3.27 -12.69,3.27 -4.44,0 -8.81,-1.14 -12.69,-3.28 -7.78,-3.97 -12.69,-11.98 -12.69,-20.73 0,-0.13 0,-0.29 0,-0.42l-0.01 -380.74c0.01,-0.14 0.01,-0.29 0.01,-0.42 0,-8.74 4.91,-16.76 12.69,-20.72 3.23,-2.76 7.34,-4.27 11.58,-4.27 0.37,0 0.74,0.02 1.1,0.03 0.63,-0.08 1.27,-0.12 1.91,-0.12 4.02,0 7.89,1.56 10.78,4.35l334.2 190.38c7.8,4.16 12.69,12.29 12.69,21.14 0,8.86 -4.88,16.99 -12.69,21.16l0 0.01z" data-name="Path 7045"/>
 </g>
</svg>
