<?xml version="1.0" encoding="UTF-8"?>
<!DOCTYPE svg PUBLIC "-//W3C//DTD SVG 1.1//EN" "http://www.w3.org/Graphics/SVG/1.1/DTD/svg11.dtd">
<!-- Creator: CorelDRAW 2021.5 -->
<svg xmlns="http://www.w3.org/2000/svg" xml:space="preserve" width="1.66747in" height="1.66747in" version="1.1" style="shape-rendering:geometricPrecision; text-rendering:geometricPrecision; image-rendering:optimizeQuality; fill-rule:evenodd; clip-rule:evenodd"
viewBox="0 0 1666.66 1666.66"
 xmlns:xlink="http://www.w3.org/1999/xlink"
 xmlns:xodm="http://www.corel.com/coreldraw/odm/2003">
 <defs>
  <style type="text/css">
   <![CDATA[
    .fil0 {fill:none}
    .fil1 {fill:#7C8E94;fill-rule:nonzero}
   ]]>
  </style>
 </defs>
 <g id="Layer_x0020_1">
  <metadata id="CorelCorpID_0Corel-Layer"/>
  <rect class="fil0" width="1666.66" height="1666.66"/>
  <path class="fil1" d="M1407.61 513.99c-59.22,-86.73 -126.91,-109.99 -173.45,-112.11 -67.69,-4.23 -141.72,31.73 -196.71,93.07 -48.65,55 -99.41,103.65 -188.25,103.65l-33.85 -0.01c-88.84,0 -139.61,-48.65 -188.25,-103.65 -47.17,-58.8 -118.56,-93.08 -193.98,-93.08 -0.88,0 -1.83,0 -2.7,0 -46.54,2.12 -114.22,25.39 -171.33,109.99 -190.37,253.83 -181.91,604.95 -181.91,619.76 2.12,171.33 42.31,287.67 118.45,359.58 16.92,16.92 71.92,33.84 133.26,33.84 27.92,-0.06 55.83,-4.35 82.49,-12.66 57.11,-16.92 129.03,-63.46 154.41,-177.68 40.19,-158.64 230.56,-156.53 239.02,-156.53l59.2 -0.01c8.46,0 196.71,-4.23 236.9,154.42 25.38,116.33 97.3,162.87 154.41,179.79 26.64,8.31 54.56,12.61 82.5,12.68 61.34,0 116.34,-16.92 133.26,-33.84 76.15,-71.92 114.22,-188.25 118.45,-359.59 0,-14.8 6.35,-365.93 -181.91,-617.64l-0.02 0zm97.3 615.53c-2.12,126.91 -25.38,219.99 -69.8,277.09 -12.58,14.85 -29.68,25.26 -48.66,29.6 -15.84,3.61 -32.14,5.49 -48.4,5.49 -26.09,0 -52,-4.73 -76.4,-13.94 -42.31,-19.03 -69.8,-55 -82.5,-114.23 -46.54,-179.79 -230.56,-219.98 -319.4,-217.87l-57.11 0.01c-90.95,-2.12 -274.98,38.08 -321.51,219.99 -12.7,57.11 -40.19,93.07 -82.5,112.11 -24.34,9.22 -50.27,13.97 -76.33,13.97 -16.31,0 -32.56,-1.87 -48.45,-5.52 -18.99,-4.34 -36.08,-14.75 -48.65,-29.62 -44.43,-57.1 -67.7,-150.16 -69.82,-279.19 0,-4.23 -6.35,-338.43 167.1,-568.99 33.84,-48.65 69.8,-74.03 109.99,-76.15 50.77,-2.12 101.53,31.73 131.14,65.57 44.42,48.65 116.33,133.26 249.6,133.26l33.85 0c133.26,0 205.18,-82.5 249.6,-133.26 29.61,-33.84 80.38,-67.69 131.14,-65.57 40.19,2.12 78.27,27.5 112.11,78.27 173.45,230.57 164.99,566.88 164.99,568.99zm-226.33 -896.86c60.05,0.84 115.07,34.01 143.84,86.71 1.24,3.67 1.88,7.52 1.88,11.38 0,19.44 -15.77,35.22 -35.22,35.22 -12.31,0 -23.74,-6.45 -30.12,-16.97 -15.78,-28.24 -45.64,-45.75 -77.99,-45.75 -12.48,0 -24.84,2.63 -36.24,7.68 -4.03,1.41 -8.3,2.14 -12.58,2.14 -14.43,0 -27.61,-8.24 -33.94,-21.19 -1.55,-4.17 -2.36,-8.59 -2.36,-13.05 0,-12.69 6.48,-24.53 17.16,-31.37 20.1,-9.74 42.17,-14.8 64.5,-14.8 0.34,0 0.72,0 1.06,0l0.01 0zm-84.6 -35.96c-5.32,3.01 -11.35,4.6 -17.48,4.6 -19.64,0 -35.56,-15.93 -35.56,-35.56 0,-12.42 6.48,-23.93 17.08,-30.38 2.12,-2.12 4.23,-2.12 8.46,-4.23 35.9,-15.69 74.72,-23.82 113.9,-23.82 105.91,0 203.09,58.95 252.02,152.85 3.66,5.67 5.61,12.29 5.61,19.04 0,19.44 -15.76,35.21 -35.21,35.21 -11.97,0 -23.14,-6.09 -29.61,-16.17 -0.22,-1.6 -0.97,-3.09 -2.12,-4.22 -37.94,-70.59 -111.7,-114.66 -191.87,-114.66 -29.28,0 -58.28,5.93 -85.22,17.37l0 -0.02zm-626.11 636.68l-57.11 0 0 -57.11c0.01,-19.86 -16.09,-35.96 -35.95,-35.96 -19.86,0 -35.96,16.1 -35.96,35.96l0 57.11 -57.11 0c-19.85,0 -35.95,16.09 -35.95,35.95 0,19.86 16.1,35.96 35.96,35.96l57.1 0.01 0 57.11c0,19.84 16.1,35.94 35.96,35.94 19.86,0 35.96,-16.1 35.96,-35.96l0 -57.11 57.1 0.02c19.62,-0.58 35.39,-16.36 35.97,-35.97 0,-0.1 0,-0.22 0,-0.32 0,-19.68 -15.96,-35.63 -35.64,-35.63 -0.11,0 -0.22,0 -0.32,0l-0.01 0zm577.45 -118.45c32.71,0 59.22,26.52 59.22,59.22 0,32.7 -26.51,59.22 -59.22,59.22 -32.7,0 -59.22,-26.52 -59.22,-59.22 -0.01,-0.46 -0.02,-0.94 -0.02,-1.41 0,-31.94 25.9,-57.83 57.83,-57.83 0.46,0 0.95,0.01 1.41,0.02l-0.01 0zm-54.99 169.22c0,32.7 -26.52,59.22 -59.22,59.22 -32.7,0 -59.22,-26.51 -59.22,-59.22 0,-32.7 26.52,-59.22 59.22,-59.22 32.42,0.67 58.55,26.8 59.22,59.22l0 0.01zm54.99 55c32.71,-0.01 59.22,26.51 59.22,59.22 0.02,0.46 0.02,0.95 0.02,1.41 0,31.94 -25.89,57.83 -57.83,57.83 -0.46,0 -0.95,-0.01 -1.42,-0.02 -32.7,-0.01 -59.22,-26.53 -59.22,-59.23 -0.01,-0.46 -0.02,-0.94 -0.02,-1.41 0,-31.94 25.9,-57.83 57.83,-57.83 0.46,0 0.95,0.01 1.41,0.02l-0.01 0.01zm169.22 -55c0,32.7 -26.52,59.22 -59.22,59.22 -32.7,0 -59.22,-26.51 -59.22,-59.22 0,-32.7 26.52,-59.22 59.22,-59.22 32.42,0.67 58.55,26.8 59.22,59.22l0 0.01z" data-name="Path 7049"/>
 </g>
</svg>
